<svg width="391" height="377" viewBox="0 0 391 377" fill="none" xmlns="http://www.w3.org/2000/svg">
<path d="M0.666667 14C0.666667 16.9455 3.05448 19.3333 6 19.3333C8.94552 19.3333 11.3333 16.9455 11.3333 14C11.3333 11.0545 8.94552 8.66667 6 8.66667C3.05448 8.66667 0.666667 11.0545 0.666667 14ZM5 14V352H7V14H5ZM30 377H366V375H30V377ZM391 352V38H389V352H391ZM366 13H190.5V15H366V13ZM391 38C391 24.1929 379.807 13 366 13V15C378.703 15 389 25.2975 389 38H391ZM366 377C379.807 377 391 365.807 391 352H389C389 364.703 378.703 375 366 375V377ZM5 352C5 365.807 16.1929 377 30 377V375C17.2975 375 7 364.703 7 352H5Z" fill="white"/>
<g clip-path="url(#clip0_40_73)">
<path d="M162.04 0H41.86C33.65 0 27 6.65 27 14.86C27 23.07 33.65 29.72 41.86 29.72H162.04C170.25 29.72 176.9 23.07 176.9 14.86C176.9 6.65 170.25 0 162.04 0Z" fill="#29974F"/>
<path d="M75.71 23.33V7.75005H70.91V5.61005H82.8V7.75005H78.07V23.33H75.72H75.71Z" fill="white"/>
<path d="M83.36 23.33V10.51H85.52V12.86L85.28 12.53C85.58 11.8 86.04 11.26 86.66 10.9C87.28 10.54 88.03 10.36 88.92 10.36H89.7V12.45H88.58C87.68 12.45 86.95 12.73 86.39 13.29C85.83 13.85 85.56 14.65 85.56 15.68V23.31H83.35L83.36 23.33Z" fill="white"/>
<path d="M95.44 23.61C94.6 23.61 93.86 23.46 93.22 23.15C92.58 22.84 92.07 22.41 91.71 21.87C91.34 21.32 91.16 20.69 91.16 19.98C91.16 19.27 91.31 18.68 91.6 18.14C91.89 17.6 92.35 17.13 92.98 16.75C93.61 16.37 94.39 16.1 95.35 15.94L100.11 15.15V17L95.85 17.71C95.03 17.85 94.43 18.11 94.06 18.5C93.69 18.88 93.5 19.35 93.5 19.9C93.5 20.42 93.71 20.86 94.13 21.21C94.55 21.56 95.08 21.73 95.71 21.73C96.52 21.73 97.22 21.56 97.82 21.22C98.41 20.88 98.88 20.42 99.22 19.83C99.56 19.24 99.73 18.59 99.73 17.88V14.62C99.73 13.92 99.47 13.36 98.96 12.92C98.44 12.48 97.77 12.27 96.93 12.27C96.2 12.27 95.55 12.46 94.99 12.83C94.43 13.2 94.01 13.7 93.74 14.32L91.81 13.32C92.05 12.73 92.43 12.21 92.95 11.74C93.47 11.27 94.08 10.9 94.78 10.63C95.48 10.36 96.21 10.23 96.97 10.23C97.95 10.23 98.82 10.42 99.56 10.79C100.3 11.16 100.89 11.68 101.31 12.34C101.73 13 101.94 13.76 101.94 14.63V23.33H99.78V20.9L100.18 21.04C99.91 21.55 99.55 21.99 99.09 22.37C98.63 22.75 98.09 23.05 97.47 23.27C96.85 23.49 96.18 23.6 95.45 23.6L95.44 23.61Z" fill="white"/>
<path d="M111.19 23.61C109.98 23.61 108.9 23.32 107.94 22.73C106.98 22.14 106.22 21.34 105.67 20.33C105.12 19.32 104.84 18.18 104.84 16.93C104.84 15.68 105.12 14.5 105.67 13.49C106.22 12.48 106.98 11.69 107.94 11.1C108.9 10.51 109.98 10.22 111.19 10.22C112.25 10.22 113.2 10.45 114.02 10.9C114.84 11.35 115.49 11.96 115.97 12.72L115.61 13.27V5.33002H117.84V23.33H115.68V20.6L115.97 20.98C115.53 21.82 114.88 22.47 114.03 22.93C113.18 23.39 112.24 23.62 111.19 23.62V23.61ZM111.38 21.47C112.19 21.47 112.91 21.27 113.54 20.88C114.17 20.48 114.68 19.94 115.05 19.25C115.42 18.56 115.61 17.79 115.61 16.93C115.61 16.07 115.42 15.28 115.05 14.59C114.68 13.9 114.17 13.36 113.54 12.96C112.91 12.56 112.18 12.37 111.38 12.37C110.58 12.37 109.87 12.57 109.23 12.98C108.59 13.38 108.09 13.92 107.72 14.6C107.36 15.27 107.17 16.05 107.17 16.94C107.17 17.83 107.35 18.57 107.72 19.26C108.09 19.95 108.59 20.49 109.22 20.89C109.85 21.29 110.58 21.48 111.38 21.48V21.47Z" fill="white"/>
<path d="M127.17 23.61C125.93 23.61 124.83 23.32 123.87 22.73C122.9 22.14 122.14 21.34 121.59 20.32C121.03 19.3 120.76 18.15 120.76 16.88C120.76 15.61 121.03 14.45 121.58 13.46C122.13 12.47 122.87 11.67 123.81 11.09C124.75 10.51 125.81 10.22 126.99 10.22C127.94 10.22 128.78 10.39 129.52 10.73C130.26 11.07 130.88 11.53 131.4 12.11C131.92 12.69 132.31 13.35 132.59 14.08C132.87 14.81 133.01 15.58 133.01 16.37C133.01 16.54 133 16.74 132.97 16.95C132.94 17.16 132.92 17.37 132.89 17.56H122.38V15.66H131.61L130.56 16.52C130.7 15.7 130.62 14.96 130.32 14.31C130.02 13.66 129.58 13.14 128.99 12.76C128.4 12.38 127.74 12.19 126.99 12.19C126.24 12.19 125.56 12.38 124.94 12.76C124.32 13.14 123.84 13.68 123.5 14.39C123.16 15.1 123.02 15.93 123.08 16.9C123.02 17.84 123.16 18.66 123.52 19.36C123.88 20.07 124.38 20.61 125.04 21C125.7 21.39 126.42 21.58 127.19 21.58C128.05 21.58 128.77 21.38 129.35 20.99C129.93 20.6 130.41 20.09 130.78 19.47L132.63 20.42C132.38 21.01 131.99 21.54 131.45 22.03C130.91 22.52 130.29 22.9 129.57 23.18C128.85 23.47 128.04 23.61 127.16 23.61H127.17Z" fill="white"/>
<path d="M43.21 38.9V37.7H44.41V38.9H43.21ZM43.27 47.47V40.3899H44.33V47.47H43.27Z" fill="white"/>
<path d="M46.3099 47.47V40.39H47.2299L47.3699 41.17H47.4399C47.6299 40.93 47.8899 40.72 48.2199 40.53C48.5499 40.34 48.9099 40.25 49.2799 40.25C49.7799 40.25 50.2099 40.37 50.5799 40.62C50.9499 40.87 51.1999 41.14 51.3399 41.46H51.4099C51.6099 41.15 51.9199 40.87 52.3399 40.62C52.7599 40.37 53.2299 40.25 53.7499 40.25C54.2399 40.25 54.6799 40.37 55.0699 40.6C55.4599 40.84 55.7599 41.16 55.9799 41.58C56.1999 42 56.3099 42.47 56.3099 43.01V47.47H55.2499V43.01C55.2499 42.66 55.1899 42.35 55.0499 42.08C54.9199 41.81 54.7299 41.6 54.4799 41.46C54.2299 41.31 53.9399 41.24 53.6099 41.24C53.3099 41.24 53.0199 41.32 52.7499 41.47C52.4699 41.63 52.2599 41.84 52.0899 42.11C51.9199 42.38 51.8399 42.68 51.8399 43V47.46H50.7799V43C50.7799 42.65 50.7099 42.34 50.5799 42.07C50.4499 41.8 50.2599 41.59 50.0099 41.45C49.7599 41.31 49.4799 41.23 49.1499 41.23C48.8499 41.23 48.5599 41.31 48.2799 41.46C48.0099 41.62 47.7899 41.83 47.6199 42.1C47.4499 42.37 47.3699 42.67 47.3699 42.99V47.45H46.3099V47.47Z" fill="white"/>
<path d="M58.2799 50.3V40.38H59.1999L59.3399 41.37H59.4099C59.6999 41 60.0299 40.72 60.3999 40.53C60.7699 40.34 61.1899 40.24 61.6799 40.24C62.2999 40.24 62.8499 40.4 63.3499 40.71C63.8499 41.02 64.2299 41.46 64.5199 42.01C64.8099 42.57 64.9499 43.21 64.9499 43.92C64.9499 44.63 64.8099 45.28 64.5199 45.83C64.2399 46.39 63.8499 46.82 63.3499 47.13C62.8499 47.44 62.2999 47.6 61.6799 47.6C61.1999 47.6 60.7699 47.5 60.3999 47.31C60.0299 47.12 59.6999 46.84 59.4099 46.47H59.3399V50.3H58.2799ZM61.6099 46.62C62.0199 46.62 62.3899 46.51 62.7399 46.28C63.0799 46.05 63.3599 45.74 63.5699 45.33C63.7799 44.92 63.8799 44.46 63.8799 43.93C63.8799 43.4 63.7799 42.93 63.5699 42.53C63.3599 42.12 63.0899 41.81 62.7399 41.58C62.3899 41.35 62.0199 41.24 61.6099 41.24C61.1999 41.24 60.8299 41.35 60.4799 41.58C60.1399 41.81 59.8599 42.12 59.6499 42.53C59.4399 42.94 59.3399 43.4 59.3399 43.93C59.3399 44.46 59.4399 44.93 59.6499 45.33C59.8599 45.74 60.1299 46.05 60.4799 46.28C60.8299 46.51 61.1999 46.62 61.6099 46.62Z" fill="white"/>
<path d="M69.4799 47.61C68.8499 47.61 68.2699 47.45 67.7499 47.14C67.2299 46.83 66.8199 46.39 66.5199 45.84C66.2199 45.28 66.0699 44.65 66.0699 43.93C66.0699 43.21 66.2199 42.57 66.5199 42.02C66.8199 41.46 67.2299 41.03 67.7499 40.72C68.2699 40.41 68.8499 40.25 69.4799 40.25C70.1099 40.25 70.6899 40.41 71.2099 40.72C71.7299 41.03 72.1399 41.47 72.4299 42.02C72.7299 42.58 72.8799 43.22 72.8799 43.93C72.8799 44.64 72.7299 45.29 72.4299 45.84C72.1299 46.4 71.7199 46.83 71.2099 47.14C70.6999 47.45 70.1099 47.61 69.4799 47.61ZM69.4799 46.62C69.8999 46.62 70.2999 46.51 70.6599 46.29C71.0199 46.07 71.2999 45.75 71.5099 45.34C71.7199 44.93 71.8199 44.46 71.8199 43.93C71.8199 43.4 71.7199 42.93 71.5099 42.52C71.2999 42.11 71.0199 41.79 70.6599 41.57C70.2999 41.35 69.9099 41.24 69.4799 41.24C69.0499 41.24 68.6599 41.35 68.2999 41.57C67.9399 41.79 67.6599 42.11 67.4499 42.52C67.2399 42.93 67.1399 43.4 67.1399 43.93C67.1399 44.46 67.2399 44.93 67.4499 45.34C67.6599 45.75 67.9399 46.07 68.2999 46.29C68.6599 46.51 69.0499 46.62 69.4799 46.62Z" fill="white"/>
<path d="M74.4399 47.47V40.39H75.3599L75.4999 41.1H75.5699C75.7299 40.85 75.8999 40.68 76.0899 40.56C76.2799 40.44 76.5499 40.39 76.9099 40.39H78.1099V41.38H77.0499C76.5599 41.38 76.1799 41.51 75.8999 41.78C75.6199 42.05 75.4899 42.43 75.4899 42.94V47.47H74.4299H74.4399Z" fill="white"/>
<path d="M81.03 47.47C80.64 47.47 80.33 47.36 80.1 47.14C79.87 46.92 79.75 46.63 79.75 46.27V41.38H78.62V40.39H79.75V38.41H80.81V40.39H82.44V41.38H80.81V46.06C80.81 46.2 80.85 46.31 80.92 46.38C80.99 46.45 81.1 46.49 81.24 46.49H82.45V47.48H81.03V47.47Z" fill="white"/>
<path d="M89.75 47.61C89.13 47.61 88.59 47.5 88.13 47.27C87.67 47.04 87.32 46.74 87.08 46.35C86.83 45.96 86.71 45.53 86.71 45.06C86.71 44.59 86.83 44.15 87.06 43.77C87.29 43.39 87.65 43.02 88.13 42.65L88.7 42.23L88.06 41.52C87.79 41.21 87.58 40.92 87.43 40.66C87.28 40.4 87.21 40.1 87.21 39.75C87.21 39.31 87.32 38.91 87.54 38.55C87.76 38.2 88.06 37.92 88.45 37.71C88.84 37.51 89.28 37.41 89.77 37.41C90.26 37.41 90.69 37.52 91.08 37.73C91.47 37.94 91.78 38.23 91.99 38.6C92.21 38.97 92.32 39.38 92.32 39.82C92.32 40.22 92.2 40.58 91.96 40.92C91.72 41.26 91.39 41.57 90.98 41.88L90.2 42.45L92.47 44.86C92.63 44.64 92.78 44.34 92.91 43.97C93.04 43.59 93.11 43.21 93.11 42.81H94.17C94.17 43.39 94.08 43.95 93.89 44.47C93.7 44.99 93.49 45.38 93.25 45.65L95.02 47.49H93.6L92.61 46.43C92.33 46.74 91.92 47.02 91.4 47.27C90.88 47.52 90.34 47.64 89.77 47.64L89.75 47.61ZM89.75 46.55C90.19 46.55 90.56 46.47 90.87 46.32C91.18 46.17 91.49 45.94 91.81 45.63L89.4 43.01L88.9 43.36C88.52 43.62 88.25 43.88 88.09 44.12C87.92 44.36 87.84 44.65 87.84 44.99C87.84 45.43 88.01 45.8 88.36 46.1C88.71 46.4 89.17 46.55 89.76 46.55H89.75ZM90.25 41.17C90.53 40.96 90.76 40.75 90.92 40.54C91.08 40.33 91.17 40.09 91.17 39.82C91.17 39.55 91.11 39.33 90.99 39.13C90.87 38.92 90.71 38.76 90.49 38.65C90.27 38.54 90.03 38.48 89.75 38.48C89.47 38.48 89.23 38.54 89.01 38.65C88.79 38.76 88.63 38.92 88.51 39.11C88.39 39.3 88.33 39.52 88.33 39.76C88.33 39.97 88.37 40.16 88.46 40.34C88.54 40.52 88.69 40.73 88.9 40.96L89.54 41.67L90.25 41.17Z" fill="white"/>
<path d="M100.11 47.47L98.2 40.39H99.33L100.89 46.34H101.17L102.73 40.39H104.43L105.99 46.34H106.28L107.84 40.39H108.97L107.06 47.47H105.22L103.73 41.73H103.45L101.96 47.47H100.12H100.11Z" fill="white"/>
<path d="M110.24 47.47V37.55H111.3V41.16H111.37C111.56 40.92 111.84 40.71 112.22 40.52C112.6 40.33 113.02 40.24 113.5 40.24C114.04 40.24 114.52 40.36 114.95 40.62C115.38 40.87 115.72 41.22 115.96 41.68C116.21 42.13 116.33 42.65 116.33 43.22V47.47H115.27V43.22C115.27 42.85 115.18 42.52 115.01 42.21C114.84 41.91 114.61 41.67 114.31 41.49C114.01 41.31 113.7 41.23 113.35 41.23C112.98 41.23 112.64 41.32 112.32 41.51C112 41.69 111.75 41.94 111.57 42.24C111.38 42.54 111.29 42.87 111.29 43.22V47.47H110.23H110.24Z" fill="white"/>
<path d="M121.3 47.61C120.67 47.61 120.09 47.45 119.57 47.14C119.05 46.83 118.64 46.39 118.35 45.84C118.05 45.28 117.9 44.65 117.9 43.93C117.9 43.21 118.05 42.57 118.35 42.02C118.65 41.46 119.06 41.03 119.57 40.72C120.09 40.41 120.67 40.25 121.3 40.25C121.93 40.25 122.51 40.41 123.03 40.72C123.55 41.03 123.96 41.47 124.26 42.02C124.56 42.58 124.71 43.22 124.71 43.93C124.71 44.64 124.56 45.29 124.26 45.84C123.96 46.4 123.55 46.83 123.03 47.14C122.51 47.45 121.93 47.61 121.3 47.61ZM121.3 46.62C121.73 46.62 122.12 46.51 122.48 46.29C122.84 46.07 123.12 45.75 123.33 45.34C123.54 44.93 123.64 44.46 123.64 43.93C123.64 43.4 123.54 42.93 123.33 42.52C123.12 42.11 122.84 41.79 122.48 41.57C122.12 41.35 121.73 41.24 121.3 41.24C120.87 41.24 120.48 41.35 120.12 41.57C119.76 41.79 119.48 42.11 119.27 42.52C119.06 42.93 118.96 43.4 118.96 43.93C118.96 44.46 119.06 44.93 119.27 45.34C119.48 45.75 119.76 46.07 120.12 46.29C120.48 46.51 120.87 46.62 121.3 46.62Z" fill="white"/>
<path d="M126.33 47.47V37.55H127.39V47.47H126.33Z" fill="white"/>
<path d="M132.42 47.61C131.79 47.61 131.21 47.45 130.69 47.14C130.17 46.83 129.76 46.39 129.47 45.84C129.17 45.28 129.02 44.65 129.02 43.93C129.02 43.21 129.17 42.57 129.47 42.02C129.77 41.46 130.18 41.03 130.69 40.72C131.21 40.41 131.79 40.25 132.42 40.25C133.05 40.25 133.58 40.4 134.08 40.69C134.58 40.98 134.97 41.39 135.26 41.9C135.55 42.41 135.69 43 135.69 43.65C135.69 43.84 135.69 44 135.67 44.15C135.65 44.3 135.64 44.39 135.62 44.43H130.09C130.14 44.86 130.27 45.25 130.49 45.59C130.71 45.93 130.99 46.18 131.33 46.36C131.67 46.54 132.04 46.63 132.44 46.63C132.87 46.63 133.25 46.53 133.58 46.33C133.92 46.13 134.17 45.85 134.35 45.49H135.48C135.31 45.94 135.08 46.33 134.79 46.64C134.5 46.96 134.16 47.2 133.76 47.36C133.36 47.52 132.92 47.61 132.43 47.61H132.42ZM134.62 43.43C134.6 43.01 134.49 42.64 134.29 42.3C134.09 41.96 133.83 41.7 133.5 41.51C133.17 41.32 132.81 41.23 132.42 41.23C132 41.23 131.63 41.32 131.29 41.51C130.95 41.7 130.67 41.96 130.47 42.29C130.26 42.62 130.13 43 130.09 43.42H134.63L134.62 43.43Z" fill="white"/>
<path d="M139.51 47.61C138.94 47.61 138.45 47.51 138.02 47.31C137.59 47.11 137.26 46.84 137.03 46.5C136.8 46.17 136.68 45.8 136.68 45.42H137.74C137.74 45.64 137.81 45.84 137.95 46.02C138.09 46.2 138.29 46.35 138.56 46.46C138.82 46.57 139.14 46.62 139.51 46.62C140.05 46.62 140.47 46.52 140.76 46.32C141.06 46.12 141.21 45.86 141.21 45.56C141.21 45.28 141.11 45.05 140.92 44.87C140.73 44.69 140.42 44.57 140.01 44.49L138.8 44.28C138.14 44.17 137.64 43.95 137.31 43.62C136.98 43.29 136.81 42.85 136.81 42.3C136.81 41.91 136.91 41.56 137.1 41.25C137.29 40.94 137.59 40.69 137.99 40.51C138.39 40.33 138.87 40.24 139.44 40.24C140.01 40.24 140.47 40.34 140.89 40.54C141.31 40.74 141.63 41.01 141.86 41.35C142.09 41.69 142.2 42.05 142.2 42.43H141.14C141.14 42.21 141.07 42.01 140.93 41.83C140.79 41.65 140.59 41.5 140.33 41.39C140.07 41.28 139.77 41.23 139.43 41.23C138.93 41.23 138.54 41.33 138.27 41.53C138 41.73 137.87 41.99 137.87 42.29C137.87 42.55 137.96 42.77 138.13 42.93C138.3 43.09 138.59 43.21 139 43.28L140.21 43.49C140.92 43.61 141.44 43.84 141.77 44.18C142.1 44.52 142.27 44.97 142.27 45.54C142.27 45.93 142.16 46.28 141.96 46.59C141.76 46.9 141.44 47.15 141.02 47.33C140.6 47.51 140.1 47.6 139.5 47.6L139.51 47.61Z" fill="white"/>
<path d="M145.95 47.61C145.46 47.61 145.03 47.52 144.65 47.33C144.28 47.14 143.99 46.88 143.78 46.55C143.57 46.22 143.47 45.84 143.47 45.42C143.47 44.96 143.57 44.56 143.77 44.22C143.97 43.89 144.28 43.62 144.7 43.43C145.12 43.24 145.65 43.15 146.3 43.15H148.21V42.94C148.21 42.41 148.06 41.99 147.76 41.69C147.46 41.39 147.04 41.24 146.51 41.24C146.17 41.24 145.87 41.29 145.61 41.4C145.35 41.51 145.15 41.65 145 41.84C144.85 42.03 144.77 42.22 144.74 42.44H143.68C143.71 42.05 143.84 41.69 144.06 41.36C144.29 41.02 144.61 40.76 145.03 40.55C145.45 40.34 145.94 40.25 146.51 40.25C147.08 40.25 147.57 40.36 147.98 40.57C148.39 40.78 148.71 41.09 148.94 41.5C149.16 41.91 149.27 42.39 149.27 42.95V47.48H148.35L148.21 46.63H148.14C147.98 46.89 147.7 47.11 147.31 47.32C146.92 47.52 146.46 47.62 145.94 47.62L145.95 47.61ZM145.95 46.62C146.41 46.62 146.82 46.53 147.16 46.35C147.5 46.17 147.77 45.92 147.95 45.58C148.13 45.25 148.22 44.86 148.22 44.42V44.14H146.31C145.7 44.14 145.26 44.26 144.97 44.49C144.68 44.73 144.54 45.03 144.54 45.41C144.54 45.79 144.66 46.06 144.91 46.28C145.16 46.5 145.51 46.61 145.96 46.61L145.95 46.62Z" fill="white"/>
<path d="M151.34 47.47V37.55H152.4V47.47H151.34Z" fill="white"/>
<path d="M157.43 47.61C156.8 47.61 156.22 47.45 155.7 47.14C155.18 46.83 154.77 46.39 154.47 45.84C154.17 45.28 154.02 44.65 154.02 43.93C154.02 43.21 154.17 42.57 154.47 42.02C154.77 41.46 155.18 41.03 155.7 40.72C156.22 40.41 156.8 40.25 157.43 40.25C158.06 40.25 158.59 40.4 159.09 40.69C159.59 40.98 159.98 41.39 160.27 41.9C160.56 42.41 160.69 43 160.69 43.65C160.69 43.84 160.69 44 160.67 44.15C160.65 44.29 160.64 44.39 160.62 44.43H155.09C155.14 44.86 155.27 45.25 155.49 45.59C155.71 45.92 155.99 46.18 156.33 46.36C156.67 46.54 157.04 46.63 157.44 46.63C157.86 46.63 158.24 46.53 158.58 46.33C158.91 46.13 159.17 45.85 159.35 45.49H160.48C160.31 45.94 160.08 46.33 159.79 46.64C159.5 46.96 159.16 47.2 158.76 47.36C158.36 47.52 157.92 47.61 157.43 47.61ZM159.63 43.43C159.61 43.01 159.5 42.64 159.3 42.3C159.1 41.97 158.84 41.7 158.51 41.51C158.18 41.32 157.82 41.23 157.43 41.23C157.01 41.23 156.64 41.32 156.3 41.51C155.96 41.7 155.69 41.96 155.48 42.29C155.27 42.62 155.14 43 155.1 43.42H159.63V43.43Z" fill="white"/>
</g>
<defs>
<clipPath id="clip0_40_73">
<rect width="149.9" height="50.3" fill="white" transform="translate(27)"/>
</clipPath>
</defs>
</svg>
