<svg width="391" height="376" viewBox="0 0 391 376" fill="none" xmlns="http://www.w3.org/2000/svg">
<path d="M0.666667 13C0.666667 15.9455 3.05448 18.3333 6 18.3333C8.94552 18.3333 11.3333 15.9455 11.3333 13C11.3333 10.0545 8.94552 7.66667 6 7.66667C3.05448 7.66667 0.666667 10.0545 0.666667 13ZM5 13V351H7V13H5ZM30 376H366V374H30V376ZM391 351V37H389V351H391ZM366 12H180.5V14H366V12ZM391 37C391 23.1929 379.807 12 366 12V14C378.703 14 389 24.2975 389 37H391ZM366 376C379.807 376 391 364.807 391 351H389C389 363.703 378.703 374 366 374V376ZM5 351C5 364.807 16.1929 376 30 376V374C17.2975 374 7 363.703 7 351H5Z" fill="white"/>
<g clip-path="url(#clip0_36_101)">
<path d="M154.04 0H33.86C25.65 0 19 6.65 19 14.86C19 23.07 25.65 29.72 33.86 29.72H154.04C162.25 29.72 168.9 23.07 168.9 14.86C168.9 6.65 162.25 0 154.04 0Z" fill="#29974F"/>
<path d="M81.3176 6C83.5234 6 85.3555 6.7735 86.8134 8.31996C88.2713 9.86697 89 11.7601 89 14C89 16.2399 88.2713 18.1336 86.8134 19.68C85.3555 21.2271 83.5234 22 81.3176 22H75V6H81.3176ZM81.3176 19.9881C82.9682 19.9881 84.3178 19.4168 85.3669 18.2736C86.4159 17.131 86.9405 15.7061 86.9405 13.9994C86.9405 12.2928 86.4159 10.8679 85.3669 9.72527C84.3178 8.58265 82.9677 8.01078 81.3176 8.01078H77.1525V19.9875H81.3176V19.9881Z" fill="white"/>
<path d="M92.4997 23C92.0846 23 91.7301 22.8535 91.4383 22.5617C91.1459 22.2692 91 21.9152 91 21.5C91 21.0848 91.1459 20.7308 91.4383 20.4383C91.7306 20.1459 92.0846 20 92.4997 20C92.9148 20 93.288 20.1465 93.573 20.4383C93.8575 20.7308 94 21.0848 94 21.5C94 21.9152 93.8575 22.2698 93.573 22.5617C93.288 22.8541 92.9306 23 92.4997 23Z" fill="white"/>
<path d="M111.526 20.5177C109.877 22.1726 107.864 23 105.489 23C103.113 23 101.104 22.1726 99.4621 20.5177C97.8205 18.8635 97 16.8575 97 14.4997C97 12.142 97.8205 10.1176 99.4621 8.47022C101.104 6.82341 103.112 6 105.489 6C107.865 6 109.877 6.82341 111.526 8.47022C113.175 10.1176 114 12.127 114 14.4997C114 16.8724 113.175 18.8629 111.526 20.5177ZM100.974 19.031C102.186 20.2567 103.691 20.8689 105.489 20.8689C107.286 20.8689 108.791 20.2567 110.003 19.031C111.214 17.806 111.819 16.2957 111.819 14.5003C111.819 12.7049 111.214 11.1717 110.003 9.94603C108.791 8.72096 107.286 8.10814 105.489 8.10814C103.691 8.10814 102.186 8.72096 100.974 9.94603C99.7627 11.1717 99.157 12.6899 99.157 14.5003C99.157 16.3106 99.7627 17.806 100.974 19.031Z" fill="white"/>
<g clip-path="url(#clip1_36_101)">
<path d="M31.7343 33.4104C33.0382 33.4104 34.1217 33.8732 34.9831 34.7987C35.8446 35.7243 36.2761 36.8578 36.2761 38.1985C36.2761 39.5391 35.8454 40.6726 34.9831 41.5982C34.1217 42.5237 33.0382 42.9865 31.7343 42.9865H28V33.4104H31.7343ZM31.7343 41.7827C32.7099 41.7827 33.508 41.4403 34.1279 40.757C34.7478 40.073 35.0582 39.2202 35.0582 38.1992C35.0582 37.1783 34.7478 36.3254 34.1279 35.6414C33.5072 34.9574 32.7099 34.6158 31.7343 34.6158H29.2719V41.7842H31.7343V41.7827Z" fill="white"/>
<path d="M38.533 40.1137C38.6518 40.725 38.9317 41.1987 39.3741 41.5364C39.8166 41.8741 40.3614 42.043 41.0087 42.043C41.9116 42.043 42.5682 41.71 42.9786 41.0439L43.991 41.6185C43.325 42.6488 42.322 43.164 40.9813 43.164C39.8963 43.164 39.0137 42.8239 38.3344 42.1446C37.6551 41.4653 37.3151 40.6054 37.3151 39.5657C37.3151 38.526 37.6481 37.6778 38.3133 36.9938C38.9786 36.3098 39.8408 35.9682 40.8985 35.9682C41.9014 35.9682 42.7199 36.3215 43.3539 37.0282C43.9879 37.7349 44.3045 38.5854 44.3045 39.5798C44.3045 39.7533 44.2912 39.9308 44.2638 40.1129H38.5322L38.533 40.1137ZM40.8993 37.0908C40.2606 37.0908 39.7322 37.2713 39.3124 37.6309C38.8926 37.9913 38.633 38.4721 38.533 39.074H43.1022C43.0013 38.4267 42.7465 37.9342 42.3361 37.5965C41.9257 37.2588 41.4473 37.09 40.9 37.09L40.8993 37.0908Z" fill="white"/>
<path d="M45.674 42.9865V33H46.8637V42.9865H45.674Z" fill="white"/>
<path d="M49.2855 34.9011C49.0572 34.9011 48.8657 34.8238 48.7109 34.669C48.5562 34.5142 48.4788 34.3266 48.4788 34.1085C48.4788 33.8904 48.5562 33.7004 48.7109 33.5409C48.8657 33.3815 49.0572 33.3017 49.2855 33.3017C49.5138 33.3017 49.6912 33.3815 49.846 33.5409C50.0008 33.7004 50.0782 33.8896 50.0782 34.1085C50.0782 34.3274 50.0008 34.5142 49.846 34.669C49.6904 34.8245 49.5036 34.9011 49.2855 34.9011ZM48.6836 42.9857V36.1464H49.8734V42.9865H48.6836V42.9857Z" fill="white"/>
<path d="M56.4805 36.1464H57.7664L55.0304 42.9865H53.6358L50.8998 36.1464H52.1857L54.3331 41.6998L56.4805 36.1464Z" fill="white"/>
<path d="M59.3393 40.1137C59.4581 40.725 59.7379 41.1987 60.1804 41.5364C60.6229 41.8741 61.1677 42.043 61.815 42.043C62.7179 42.043 63.3745 41.71 63.7849 41.0439L64.7973 41.6185C64.1312 42.6488 63.1283 43.164 61.7876 43.164C60.7026 43.164 59.82 42.8239 59.1407 42.1446C58.4614 41.4653 58.1213 40.6054 58.1213 39.5657C58.1213 38.526 58.4544 37.6778 59.1196 36.9938C59.7848 36.3098 60.6471 35.9682 61.7048 35.9682C62.7077 35.9682 63.5262 36.3215 64.1602 37.0282C64.7941 37.7349 65.1107 38.5854 65.1107 39.5798C65.1107 39.7533 65.0974 39.9308 65.0701 40.1129H59.3385L59.3393 40.1137ZM61.7055 37.0908C61.0669 37.0908 60.5384 37.2713 60.1186 37.6309C59.6989 37.9913 59.4393 38.4721 59.3393 39.074H63.9084C63.8076 38.4267 63.5528 37.9342 63.1423 37.5965C62.7319 37.2588 62.2535 37.09 61.7063 37.09L61.7055 37.0908Z" fill="white"/>
<path d="M67.6701 37.2956C68.0618 36.4474 68.7731 36.0237 69.8042 36.0237V37.2682C69.2203 37.2409 68.7192 37.3956 68.2994 37.7333C67.8796 38.071 67.6701 38.6136 67.6701 39.3609V42.9857H66.4803V36.1464H67.6701V37.2956Z" fill="white"/>
<path d="M75.8915 36.1464H77.1634L74.3726 43.4102C74.0811 44.1849 73.673 44.7759 73.1485 45.1816C72.6239 45.5873 72.0204 45.7671 71.3364 45.7218V44.6141C72.1721 44.6774 72.785 44.2115 73.1758 43.2156L73.3064 42.9584L70.3241 36.1457H71.596L73.8762 41.3895L75.8908 36.1457L75.8915 36.1464Z" fill="white"/>
<path d="M87.3547 42.1243C86.6527 42.8177 85.7998 43.164 84.7969 43.164C83.7939 43.164 82.9434 42.8177 82.2453 42.1243C81.548 41.4309 81.1986 40.5788 81.1986 39.5665C81.1986 38.5541 81.5473 37.7013 82.2453 37.0087C82.9426 36.3161 83.7931 35.969 84.7969 35.969C85.8006 35.969 86.6527 36.3153 87.3547 37.0087C88.0567 37.7021 88.4077 38.5541 88.4077 39.5665C88.4077 40.5788 88.0567 41.4317 87.3547 42.1243ZM84.7969 42.0008C85.4809 42.0008 86.0555 41.7686 86.5206 41.3035C86.9857 40.8383 87.2179 40.2591 87.2179 39.5665C87.2179 38.8739 86.9857 38.2938 86.5206 37.8295C86.0555 37.3644 85.4809 37.1322 84.7969 37.1322C84.1129 37.1322 83.5524 37.3644 83.0873 37.8295C82.6221 38.2946 82.39 38.8739 82.39 39.5665C82.39 40.2591 82.6229 40.8383 83.0873 41.3035C83.5524 41.7686 84.1223 42.0008 84.7969 42.0008Z" fill="white"/>
<path d="M91.0077 37.2956C91.3993 36.4474 92.1107 36.0237 93.1418 36.0237V37.2682C92.5578 37.2409 92.0567 37.3956 91.6369 37.7333C91.2172 38.071 91.0077 38.6136 91.0077 39.3609V42.9857H89.8179V36.1464H91.0077V37.2956Z" fill="white"/>
<path d="M99.6121 36.1464H100.789V42.6988C100.789 43.7112 100.446 44.4976 99.763 45.0589C99.079 45.6194 98.2582 45.9 97.3006 45.9C96.5345 45.9 95.8731 45.7562 95.3173 45.4693C94.7607 45.1824 94.3417 44.7688 94.0588 44.231L95.0984 43.6424C95.4721 44.4085 96.2155 44.7915 97.3279 44.7915C98.0393 44.7915 98.5974 44.6047 99.0039 44.231C99.4096 43.8566 99.6129 43.3461 99.6129 42.6988V41.7279C99.011 42.6402 98.1534 43.096 97.041 43.096C96.0654 43.096 95.2399 42.7496 94.5653 42.0563C93.8907 41.3637 93.553 40.5194 93.553 39.5258C93.553 38.5323 93.8899 37.6903 94.5653 37.0016C95.2399 36.3129 96.0654 35.969 97.041 35.969C98.1628 35.969 99.0196 36.42 99.6129 37.3229V36.1464H99.6121ZM95.4401 41.2628C95.9052 41.7279 96.4844 41.9601 97.177 41.9601C97.8697 41.9601 98.4489 41.7279 98.914 41.2628C99.3792 40.7977 99.6113 40.2184 99.6113 39.5258C99.6113 38.8332 99.3784 38.2672 98.914 37.8021C98.4489 37.337 97.8697 37.1048 97.177 37.1048C96.4844 37.1048 95.9052 37.337 95.4401 37.8021C94.9749 38.2672 94.7428 38.8418 94.7428 39.5258C94.7428 40.2098 94.9757 40.7977 95.4401 41.2628Z" fill="white"/>
<path d="M108.257 36.1464H109.447V42.9865H108.257V41.81C107.665 42.7129 106.802 43.1647 105.672 43.1647C104.714 43.1647 103.898 42.8161 103.224 42.118C102.549 41.4207 102.211 40.5702 102.211 39.5665C102.211 38.5627 102.548 37.713 103.224 37.0149C103.898 36.3176 104.714 35.9682 105.672 35.9682C106.802 35.9682 107.665 36.4193 108.257 37.3221V36.1457V36.1464ZM105.822 42.0148C106.515 42.0148 107.094 41.7803 107.559 41.3105C108.024 40.8407 108.256 40.2599 108.256 39.5665C108.256 38.8731 108.024 38.2923 107.559 37.8224C107.094 37.3526 106.515 37.1181 105.822 37.1181C105.129 37.1181 104.564 37.3526 104.098 37.8224C103.633 38.2923 103.401 38.8739 103.401 39.5665C103.401 40.2591 103.634 40.8407 104.098 41.3105C104.564 41.7803 105.138 42.0148 105.822 42.0148Z" fill="white"/>
<path d="M114.66 35.9682C115.462 35.9682 116.105 36.2215 116.588 36.7273C117.071 37.233 117.313 37.9194 117.313 38.7863V42.9857H116.124V38.8543C116.124 38.2985 115.974 37.867 115.672 37.5614C115.371 37.2557 114.956 37.1033 114.427 37.1033C113.835 37.1033 113.356 37.2877 112.991 37.6575C112.625 38.0265 112.443 38.5948 112.443 39.3609V42.9857H111.254V36.1464H112.443V37.1314C112.926 36.3567 113.665 35.969 114.66 35.969V35.9682Z" fill="white"/>
<path d="M119.57 34.9011C119.342 34.9011 119.151 34.8238 118.996 34.669C118.84 34.5142 118.764 34.3266 118.764 34.1085C118.764 33.8904 118.841 33.7004 118.996 33.5409C119.151 33.3815 119.342 33.3017 119.57 33.3017C119.799 33.3017 119.976 33.3815 120.131 33.5409C120.286 33.7004 120.364 33.8896 120.364 34.1085C120.364 34.3274 120.286 34.5142 120.131 34.669C119.976 34.8245 119.788 34.9011 119.57 34.9011ZM118.968 42.9857V36.1464H120.158V42.9865H118.968V42.9857Z" fill="white"/>
<path d="M123.34 41.8507H126.979V42.9857H121.722V42.186L125.22 37.2815H121.869V36.1464H126.848V36.9305L123.34 41.8507Z" fill="white"/>
<path d="M133.66 36.1464H134.85V42.9865H133.66V41.81C133.068 42.7129 132.205 43.1647 131.075 43.1647C130.117 43.1647 129.301 42.8161 128.627 42.118C127.952 41.4207 127.614 40.5702 127.614 39.5665C127.614 38.5627 127.952 37.713 128.627 37.0149C129.301 36.3176 130.117 35.9682 131.075 35.9682C132.205 35.9682 133.068 36.4193 133.66 37.3221V36.1457V36.1464ZM131.225 42.0148C131.918 42.0148 132.497 41.7803 132.962 41.3105C133.427 40.8407 133.659 40.2599 133.659 39.5665C133.659 38.8731 133.427 38.2923 132.962 37.8224C132.497 37.3526 131.918 37.1181 131.225 37.1181C130.532 37.1181 129.966 37.3526 129.501 37.8224C129.036 38.2923 128.804 38.8739 128.804 39.5665C128.804 40.2591 129.037 40.8407 129.501 41.3105C129.966 41.7803 130.541 42.0148 131.225 42.0148Z" fill="white"/>
<path d="M140.377 37.2956H138.558V41.0025C138.558 41.3402 138.623 41.5794 138.756 41.7209C138.888 41.8624 139.092 41.9351 139.365 41.9398C139.639 41.9445 139.976 41.9374 140.377 41.9195V42.9865C139.338 43.1233 138.576 43.0389 138.093 42.7332C137.61 42.4276 137.369 41.8507 137.369 41.0025V37.2956H136.015V36.1464H137.369V34.5869L138.558 34.2312V36.1464H140.377V37.2956H140.377Z" fill="white"/>
<path d="M142.388 34.9011C142.16 34.9011 141.968 34.8238 141.813 34.669C141.658 34.5142 141.581 34.3266 141.581 34.1085C141.581 33.8904 141.659 33.7004 141.813 33.5409C141.968 33.3815 142.16 33.3017 142.388 33.3017C142.616 33.3017 142.794 33.3815 142.949 33.5409C143.103 33.7004 143.181 33.8896 143.181 34.1085C143.181 34.3274 143.104 34.5142 142.949 34.669C142.794 34.8245 142.606 34.9011 142.388 34.9011ZM141.786 42.9857V36.1464H142.976V42.9865H141.786V42.9857Z" fill="white"/>
<path d="M150.568 42.1243C149.865 42.8177 149.013 43.164 148.01 43.164C147.007 43.164 146.157 42.8177 145.459 42.1243C144.761 41.4309 144.412 40.5788 144.412 39.5665C144.412 38.5541 144.761 37.7013 145.459 37.0087C146.156 36.3161 147.006 35.969 148.01 35.969C149.014 35.969 149.866 36.3153 150.568 37.0087C151.27 37.7021 151.621 38.5541 151.621 39.5665C151.621 40.5788 151.27 41.4317 150.568 42.1243ZM148.01 42.0008C148.694 42.0008 149.269 41.7686 149.734 41.3035C150.199 40.8383 150.431 40.2591 150.431 39.5665C150.431 38.8739 150.198 38.2938 149.734 37.8295C149.269 37.3651 148.694 37.1322 148.01 37.1322C147.326 37.1322 146.766 37.3644 146.301 37.8295C145.835 38.2946 145.603 38.8739 145.603 39.5665C145.603 40.2591 145.836 40.8383 146.301 41.3035C146.765 41.7686 147.336 42.0008 148.01 42.0008Z" fill="white"/>
<path d="M156.436 35.9682C157.238 35.9682 157.882 36.2215 158.365 36.7273C158.848 37.233 159.09 37.9194 159.09 38.7863V42.9857H157.901V38.8543C157.901 38.2985 157.75 37.867 157.449 37.5614C157.148 37.2557 156.733 37.1033 156.204 37.1033C155.612 37.1033 155.132 37.2877 154.767 37.6575C154.402 38.0265 154.22 38.5948 154.22 39.3609V42.9857H153.03V36.1464H154.22V37.1314C154.703 36.3567 155.442 35.969 156.436 35.969V35.9682Z" fill="white"/>
</g>
</g>
<defs>
<clipPath id="clip0_36_101">
<rect width="149.9" height="50.45" fill="white" transform="translate(19)"/>
</clipPath>
<clipPath id="clip1_36_101">
<rect width="131.09" height="12.9" fill="white" transform="translate(28 33)"/>
</clipPath>
</defs>
</svg>
