<svg width="391" height="261" viewBox="0 0 391 261" fill="none" xmlns="http://www.w3.org/2000/svg">
<path d="M0.666667 28C0.666667 30.9455 3.05448 33.3333 6 33.3333C8.94552 33.3333 11.3333 30.9455 11.3333 28C11.3333 25.0545 8.94552 22.6667 6 22.6667C3.05448 22.6667 0.666667 25.0545 0.666667 28ZM5 28V236H7V28H5ZM30 261H366V259H30V261ZM391 236V52H389V236H391ZM366 27H110.5V29H366V27ZM391 52C391 38.1929 379.807 27 366 27V29C378.703 29 389 39.2975 389 52H391ZM366 261C379.807 261 391 249.807 391 236H389C389 248.703 378.703 259 366 259V261ZM5 236C5 249.807 16.1929 261 30 261V259C17.2975 259 7 248.703 7 236H5Z" fill="white"/>
<path fill-rule="evenodd" clip-rule="evenodd" d="M45 25.2C46.4852 25.2 47.9096 24.61 48.9598 23.5597C50.01 22.5095 50.6 21.0852 50.6 19.6C50.6 18.1147 50.01 16.6904 48.9598 15.6402C47.9096 14.5899 46.4852 14 45 14C43.5148 14 42.0904 14.5899 41.0402 15.6402C39.99 16.6904 39.4 18.1147 39.4 19.6C39.4 21.0852 39.99 22.5095 41.0402 23.5597C42.0904 24.61 43.5148 25.2 45 25.2ZM45 28C46.1031 28 47.1954 27.7827 48.2145 27.3605C49.2337 26.9384 50.1597 26.3197 50.9397 25.5396C51.7197 24.7596 52.3384 23.8336 52.7606 22.8145C53.1827 21.7954 53.4 20.7031 53.4 19.6C53.4 18.4968 53.1827 17.4045 52.7606 16.3854C52.3384 15.3663 51.7197 14.4403 50.9397 13.6603C50.1597 12.8802 49.2337 12.2615 48.2145 11.8394C47.1954 11.4172 46.1031 11.2 45 11.2C42.7722 11.2 40.6356 12.0849 39.0603 13.6603C37.485 15.2356 36.6 17.3721 36.6 19.6C36.6 21.8278 37.485 23.9643 39.0603 25.5396C40.6356 27.115 42.7722 28 45 28Z" fill="white"/>
<path fill-rule="evenodd" clip-rule="evenodd" d="M41.7912 24.9088C41.9215 25.0388 42.025 25.1933 42.0955 25.3634C42.1661 25.5335 42.2025 25.7158 42.2025 25.9C42.2025 26.0841 42.1661 26.2665 42.0955 26.4365C42.025 26.6066 41.9215 26.7611 41.7912 26.8912L40.8448 27.8348C39.0234 29.6566 38.0002 32.1271 38 34.7032V39.9C38 40.2713 37.8525 40.6274 37.5899 40.8899C37.3273 41.1525 36.9713 41.3 36.6 41.3C36.2286 41.3 35.8726 41.1525 35.61 40.8899C35.3475 40.6274 35.2 40.2713 35.2 39.9V34.7032C35.2003 31.3846 36.5187 28.202 38.8652 25.8552L39.8088 24.9088C39.9388 24.7784 40.0933 24.675 40.2634 24.6044C40.4335 24.5338 40.6158 24.4975 40.8 24.4975C40.9841 24.4975 41.1664 24.5338 41.3365 24.6044C41.5066 24.675 41.6611 24.7784 41.7912 24.9088ZM74.8088 24.0688C74.6784 24.1988 74.5749 24.3533 74.5044 24.5234C74.4338 24.6935 74.3974 24.8758 74.3974 25.06C74.3974 25.2441 74.4338 25.4265 74.5044 25.5965C74.5749 25.7666 74.6784 25.9211 74.8088 26.0512L75.7552 26.9948C76.6571 27.8968 77.3725 28.9676 77.8607 30.146C78.3488 31.3245 78.6 32.5876 78.6 33.8632V39.9C78.6 40.2713 78.7474 40.6274 79.01 40.8899C79.2726 41.1525 79.6286 41.3 80 41.3C80.3713 41.3 80.7274 41.1525 80.9899 40.8899C81.2525 40.6274 81.4 40.2713 81.4 39.9V33.8632C81.3996 30.5446 80.0812 27.362 77.7348 25.0152L76.7912 24.0688C76.6611 23.9384 76.5066 23.835 76.3365 23.7644C76.1664 23.6938 75.9841 23.6575 75.8 23.6575C75.6158 23.6575 75.4335 23.6938 75.2634 23.7644C75.0933 23.835 74.9388 23.9384 74.8088 24.0688Z" fill="white"/>
<path fill-rule="evenodd" clip-rule="evenodd" d="M70.1999 25.2C68.7147 25.2 67.2903 24.61 66.2401 23.5597C65.1899 22.5095 64.5999 21.0852 64.5999 19.6C64.5999 18.1147 65.1899 16.6904 66.2401 15.6402C67.2903 14.5899 68.7147 14 70.1999 14C71.6851 14 73.1095 14.5899 74.1597 15.6402C75.2099 16.6904 75.7999 18.1147 75.7999 19.6C75.7999 21.0852 75.2099 22.5095 74.1597 23.5597C73.1095 24.61 71.6851 25.2 70.1999 25.2ZM70.1999 28C69.0968 28 68.0045 27.7827 66.9854 27.3605C65.9663 26.9384 65.0402 26.3197 64.2602 25.5396C63.4802 24.7596 62.8615 23.8336 62.4393 22.8145C62.0172 21.7954 61.7999 20.7031 61.7999 19.6C61.7999 18.4968 62.0172 17.4045 62.4393 16.3854C62.8615 15.3663 63.4802 14.4403 64.2602 13.6603C65.0402 12.8802 65.9663 12.2615 66.9854 11.8394C68.0045 11.4172 69.0968 11.2 70.1999 11.2C72.4277 11.2 74.5643 12.0849 76.1396 13.6603C77.7149 15.2356 78.5999 17.3721 78.5999 19.6C78.5999 21.8278 77.7149 23.9643 76.1396 25.5396C74.5643 27.115 72.4277 28 70.1999 28ZM57.5999 37.1C55.7434 37.1 53.9629 37.8374 52.6502 39.1502C51.3374 40.463 50.5999 42.2434 50.5999 44.1V47.7399C50.5999 48.1113 50.4524 48.4673 50.1899 48.7299C49.9273 48.9924 49.5712 49.1399 49.1999 49.1399C48.8286 49.1399 48.4725 48.9924 48.21 48.7299C47.9474 48.4673 47.7999 48.1113 47.7999 47.7399V44.1C47.7999 41.5008 48.8324 39.0082 50.6703 37.1703C52.5081 35.3324 55.0008 34.3 57.5999 34.3C60.199 34.3 62.6917 35.3324 64.5296 37.1703C66.3674 39.0082 67.3999 41.5008 67.3999 44.1V47.7399C67.3999 48.1113 67.2524 48.4673 66.9899 48.7299C66.7273 48.9924 66.3712 49.1399 65.9999 49.1399C65.6286 49.1399 65.2725 48.9924 65.01 48.7299C64.7474 48.4673 64.5999 48.1113 64.5999 47.7399V44.1C64.5999 43.1807 64.4189 42.2704 64.0671 41.4212C63.7153 40.5719 63.1997 39.8002 62.5497 39.1502C61.8997 38.5002 61.128 37.9846 60.2787 37.6328C59.4294 37.281 58.5192 37.1 57.5999 37.1Z" fill="white"/>
<path fill-rule="evenodd" clip-rule="evenodd" d="M57.6 32.8999C59.0852 32.8999 60.5095 32.3099 61.5597 31.2597C62.61 30.2095 63.2 28.7851 63.2 27.2999C63.2 25.8147 62.61 24.3903 61.5597 23.3401C60.5095 22.2899 59.0852 21.6999 57.6 21.6999C56.1147 21.6999 54.6904 22.2899 53.6402 23.3401C52.59 24.3903 52 25.8147 52 27.2999C52 28.7851 52.59 30.2095 53.6402 31.2597C54.6904 32.3099 56.1147 32.8999 57.6 32.8999ZM57.6 35.6999C59.8278 35.6999 61.9643 34.8149 63.5396 33.2396C65.115 31.6643 66 29.5277 66 27.2999C66 25.0721 65.115 22.9355 63.5396 21.3602C61.9643 19.7849 59.8278 18.8999 57.6 18.8999C55.3721 18.8999 53.2356 19.7849 51.6603 21.3602C50.0849 22.9355 49.2 25.0721 49.2 27.2999C49.2 29.5277 50.0849 31.6643 51.6603 33.2396C53.2356 34.8149 55.3721 35.6999 57.6 35.6999Z" fill="white"/>
</svg>
