<svg width="391" height="261" viewBox="0 0 391 261" fill="none" xmlns="http://www.w3.org/2000/svg">
<path d="M0.666667 28C0.666667 30.9455 3.05448 33.3333 6 33.3333C8.94552 33.3333 11.3333 30.9455 11.3333 28C11.3333 25.0545 8.94552 22.6667 6 22.6667C3.05448 22.6667 0.666667 25.0545 0.666667 28ZM5 28V236H7V28H5ZM30 261H366V259H30V261ZM391 236V52H389V236H391ZM366 27H110.5V29H366V27ZM391 52C391 38.1929 379.807 27 366 27V29C378.703 29 389 39.2975 389 52H391ZM366 261C379.807 261 391 249.807 391 236H389C389 248.703 378.703 259 366 259V261ZM5 236C5 249.807 16.1929 261 30 261V259C17.2975 259 7 248.703 7 236H5Z" fill="white"/>
<path d="M40.4 21H79.6M40.4 35H79.6M39 28C39 30.7578 39.5432 33.4885 40.5985 36.0364C41.6539 38.5842 43.2007 40.8992 45.1508 42.8492C47.1008 44.7993 49.4158 46.3461 51.9636 47.4015C54.5115 48.4568 57.2422 49 60 49C62.7578 49 65.4885 48.4568 68.0364 47.4015C70.5842 46.3461 72.8992 44.7993 74.8492 42.8492C76.7993 40.8992 78.3461 38.5842 79.4015 36.0364C80.4568 33.4885 81 30.7578 81 28C81 22.4305 78.7875 17.089 74.8492 13.1508C70.911 9.21249 65.5695 7 60 7C54.4305 7 49.089 9.21249 45.1508 13.1508C41.2125 17.089 39 22.4305 39 28Z" stroke="white" stroke-width="3" stroke-linecap="round" stroke-linejoin="round"/>
<path d="M58.8332 7C54.9023 13.2991 52.8184 20.575 52.8184 28C52.8184 35.425 54.9023 42.7009 58.8332 49M61.1665 7C65.0974 13.2991 67.1814 20.575 67.1814 28C67.1814 35.425 65.0974 42.7009 61.1665 49" stroke="white" stroke-width="3" stroke-linecap="round" stroke-linejoin="round"/>
</svg>
