<svg width="150" height="37" viewBox="0 0 150 37" fill="none" xmlns="http://www.w3.org/2000/svg">
<g clip-path="url(#clip0_49_881)">
<path d="M84.2216 23.6971C84.7422 23.6971 85.2178 23.4147 85.4623 22.9593C85.7068 22.5038 85.6771 21.9553 85.3846 21.5292L71.5165 1.25095C71.2546 0.868381 70.8199 0.639648 70.3535 0.639648C69.887 0.639648 69.4513 0.868381 69.1905 1.25095L55.3214 21.5282C55.0288 21.9553 54.9992 22.5028 55.2436 22.9583C55.4881 23.4137 55.9637 23.6961 56.4844 23.6961H57.0173C57.4847 23.6961 57.9205 23.4673 58.1823 23.0828L62.1715 17.2278C62.2176 17.161 62.2932 17.1205 62.3751 17.1205H78.3339C78.4158 17.1205 78.4914 17.16 78.5375 17.2278L82.5267 23.0828C82.7885 23.4663 83.2232 23.6961 83.6917 23.6961H84.2246L84.2216 23.6971ZM64.4403 13.9223L70.3525 5.28616L76.2647 13.9223H64.4403Z" fill="#F5F5F5"/>
<path d="M118.163 22.097V1.60011C118.163 0.717572 117.438 0 116.546 0H116.059C115.522 0 115.021 0.263143 114.721 0.703403L102.614 18.415L90.4713 0.702391C90.1696 0.263143 89.6694 0 89.1334 0H88.6455C87.7535 0 87.0283 0.717572 87.0283 1.60011V22.097C87.0283 22.9795 87.7535 23.6971 88.6455 23.6971C89.5374 23.6971 90.2626 22.9795 90.2626 22.097V6.13124L101.272 22.1921C101.574 22.6314 102.073 22.8935 102.61 22.8935C103.147 22.8935 103.647 22.6303 103.948 22.1901L114.927 6.13428V22.097C114.927 22.9795 115.652 23.6971 116.544 23.6971C117.436 23.6971 118.161 22.9795 118.161 22.097H118.163Z" fill="#F5F5F5"/>
<path d="M146.559 3.61924C144.267 1.31875 141.094 0 137.855 0H133.035C126.449 0 121.091 5.30133 121.091 11.8182C121.091 18.335 126.449 23.6364 133.035 23.6364H138.086C141.234 23.6364 144.206 22.4239 146.453 20.2206C148.695 18.0223 149.955 15.0984 149.999 11.9862C150.043 8.86085 148.822 5.88935 146.559 3.61822V3.61924ZM144.291 17.8219C142.643 19.4888 140.439 20.4068 138.086 20.4068H133.035C130.672 20.4068 128.458 19.4838 126.8 17.8077C125.154 16.1418 124.275 13.9466 124.327 11.6259C124.43 6.99658 128.403 3.22958 133.182 3.22958H137.915C142.691 3.22958 146.661 6.99456 146.764 11.6228C146.816 13.9537 145.938 16.155 144.291 17.8219Z" fill="#F5F5F5"/>
<path d="M25.7058 0.550583C22.4367 0.550583 19.4202 2.28733 17.8051 5.09892L0 36.0922H11.3958L31.8144 0.550583H25.7058Z" fill="#F5F5F5"/>
<path d="M37.5572 13.4568C35.7856 13.4568 34.149 14.3909 33.2611 15.908L21.4541 36.0922H28.5631L41.8031 13.4568H37.5572Z" fill="#F5F5F5"/>
<path d="M28.815 13.4568C27.0434 13.4568 25.4068 14.3909 24.5189 15.908L12.7119 36.0922H19.8209L33.0609 13.4568H28.815Z" fill="#F5F5F5"/>
<path d="M39.3362 36.0911C42.0788 36.0911 44.3022 33.8912 44.3022 31.1774C44.3022 28.4637 42.0788 26.2637 39.3362 26.2637C36.5935 26.2637 34.3701 28.4637 34.3701 31.1774C34.3701 33.8912 36.5935 36.0911 39.3362 36.0911Z" fill="#F5F5F5"/>
<path d="M60.5013 34.2613C60.0339 34.5609 59.4907 34.7107 58.875 34.7107C58.338 34.7107 57.8562 34.5953 57.4276 34.3655C56.999 34.1348 56.6656 33.816 56.4262 33.4081C56.1869 33.0002 56.0672 32.5397 56.0672 32.0266C56.0672 31.5135 56.1869 31.053 56.4262 30.6451C56.6656 30.2372 56.999 29.9184 57.4276 29.6876C57.8552 29.4569 58.338 29.3425 58.875 29.3425C59.4846 29.3425 60.0226 29.4873 60.4911 29.7767C60.9586 30.0662 61.291 30.4578 61.4864 30.9507H62.4878C62.3425 30.4568 62.096 30.0227 61.7482 29.6482C61.4004 29.2727 60.978 28.9842 60.4809 28.7798C59.9838 28.5764 59.4417 28.4742 58.8545 28.4742C58.1365 28.4742 57.491 28.627 56.9182 28.9326C56.3454 29.2383 55.8954 29.6613 55.5691 30.2008C55.2428 30.7402 55.0791 31.3485 55.0791 32.0266C55.0791 32.7047 55.2428 33.313 55.5691 33.8524C55.8954 34.3918 56.3454 34.8149 56.9182 35.1206C57.491 35.4262 58.1365 35.579 58.8545 35.579C59.4417 35.579 59.9858 35.4738 60.486 35.2633C60.9862 35.0527 61.4107 34.7572 61.7585 34.3746C62.1062 33.9931 62.3527 33.5488 62.498 33.0427H61.4966C61.3012 33.5559 60.9688 33.9617 60.5013 34.2613Z" fill="#F5F5F5"/>
<path d="M68.0794 30.5064C67.6222 30.2757 67.1036 30.1613 66.5237 30.1613C65.9437 30.1613 65.4353 30.2777 64.9791 30.5115C64.5219 30.7453 64.1649 31.0661 63.9072 31.474C63.6494 31.8819 63.5205 32.3454 63.5205 32.8656C63.5205 33.3858 63.6494 33.8494 63.9072 34.2572C64.1649 34.6651 64.5219 34.9859 64.9791 35.2197C65.4363 35.4535 65.9509 35.5699 66.5237 35.5699C67.0965 35.5699 67.6222 35.4545 68.0794 35.2248C68.5367 34.995 68.8916 34.6742 69.1453 34.2623C69.399 33.8514 69.5258 33.3858 69.5258 32.8656C69.5258 32.3454 69.399 31.8808 69.1453 31.4689C68.8916 31.058 68.5356 30.7372 68.0794 30.5064ZM68.3239 33.8514C68.1459 34.1408 67.8994 34.3675 67.5844 34.5325C67.2693 34.6965 66.9154 34.7795 66.5237 34.7795C66.1319 34.7795 65.78 34.6975 65.4681 34.5325C65.1561 34.3686 64.9116 34.1408 64.7336 33.8514C64.5557 33.5619 64.4667 33.233 64.4667 32.8646C64.4667 32.4962 64.5557 32.1673 64.7336 31.8778C64.9116 31.5883 65.1561 31.3616 65.4681 31.1967C65.78 31.0327 66.1319 30.9497 66.5237 30.9497C66.9154 30.9497 67.2693 31.0317 67.5844 31.1967C67.8994 31.3616 68.1459 31.5883 68.3239 31.8778C68.5019 32.1673 68.5909 32.4962 68.5909 32.8646C68.5909 33.233 68.5019 33.5619 68.3239 33.8514Z" fill="#F5F5F5"/>
<path d="M71.953 31.0297V30.2504H71.0283V35.4808H71.953V32.6389C71.953 32.31 72.0328 32.0175 72.1923 31.7604C72.3519 31.5033 72.5729 31.3029 72.8562 31.1582C73.1395 31.0135 73.4587 30.9406 73.8136 30.9406C73.9946 30.9406 74.2013 30.9669 74.4335 31.0196V30.2595C74.1726 30.2008 73.9292 30.1704 73.7041 30.1704C72.9421 30.1704 72.3591 30.4568 71.953 31.0287V31.0297Z" fill="#F5F5F5"/>
<path d="M80.3192 30.5115C79.8763 30.2777 79.3802 30.1613 78.8288 30.1613C78.3788 30.1613 77.9696 30.2352 77.5994 30.3829C77.2291 30.5307 76.914 30.7433 76.6532 31.0196V30.2504H75.7285V37H76.6532V34.7106C76.914 34.9869 77.2301 35.1995 77.5994 35.3473C77.9696 35.495 78.3788 35.5689 78.8288 35.5689C79.3802 35.5689 79.8773 35.4525 80.3192 35.2187C80.761 34.9849 81.1058 34.6641 81.3523 34.2562C81.5988 33.8483 81.7225 33.3848 81.7225 32.8646C81.7225 32.3444 81.5988 31.8808 81.3523 31.473C81.1058 31.0651 80.761 30.7443 80.3192 30.5105V30.5115ZM80.5094 33.8564C80.3314 34.1489 80.087 34.3767 79.775 34.5376C79.463 34.6985 79.1081 34.7795 78.7092 34.7795C78.3102 34.7795 77.9533 34.6985 77.6372 34.5376C77.3222 34.3767 77.0746 34.1499 76.8977 33.8564C76.7197 33.5639 76.6307 33.233 76.6307 32.8646C76.6307 32.4962 76.7197 32.1652 76.8977 31.8727C77.0756 31.5803 77.3222 31.3535 77.6372 31.1916C77.9522 31.0307 78.3102 30.9497 78.7092 30.9497C79.1081 30.9497 79.463 31.0307 79.775 31.1916C80.087 31.3525 80.3314 31.5803 80.5094 31.8727C80.6874 32.1652 80.7764 32.4962 80.7764 32.8646C80.7764 33.233 80.6874 33.5639 80.5094 33.8564Z" fill="#F5F5F5"/>
<path d="M87.347 30.5064C86.8898 30.2757 86.3712 30.1613 85.7912 30.1613C85.2113 30.1613 84.7029 30.2777 84.2467 30.5115C83.7895 30.7453 83.4325 31.0661 83.1747 31.474C82.917 31.8819 82.7881 32.3454 82.7881 32.8656C82.7881 33.3858 82.917 33.8494 83.1747 34.2572C83.4325 34.6651 83.7895 34.9859 84.2467 35.2197C84.7039 35.4535 85.2184 35.5699 85.7912 35.5699C86.364 35.5699 86.8898 35.4545 87.347 35.2248C87.8042 34.995 88.1592 34.6742 88.4129 34.2623C88.6665 33.8514 88.7934 33.3858 88.7934 32.8656C88.7934 32.3454 88.6665 31.8808 88.4129 31.4689C88.1592 31.058 87.8032 30.7372 87.347 30.5064ZM87.5915 33.8514C87.4135 34.1408 87.167 34.3675 86.852 34.5325C86.5369 34.6965 86.183 34.7795 85.7912 34.7795C85.3995 34.7795 85.0476 34.6975 84.7356 34.5325C84.4237 34.3686 84.1792 34.1408 84.0012 33.8514C83.8232 33.5619 83.7342 33.233 83.7342 32.8646C83.7342 32.4962 83.8232 32.1673 84.0012 31.8778C84.1792 31.5883 84.4237 31.3616 84.7356 31.1967C85.0476 31.0327 85.3995 30.9497 85.7912 30.9497C86.183 30.9497 86.5369 31.0317 86.852 31.1967C87.167 31.3616 87.4135 31.5883 87.5915 31.8778C87.7695 32.1673 87.8585 32.4962 87.8585 32.8646C87.8585 33.233 87.7695 33.5619 87.5915 33.8514Z" fill="#F5F5F5"/>
<path d="M91.2206 31.0297V30.2504H90.2959V35.4808H91.2206V32.6389C91.2206 32.31 91.3004 32.0175 91.4599 31.7604C91.6195 31.5033 91.8404 31.3029 92.1238 31.1582C92.4071 31.0135 92.7262 30.9406 93.0812 30.9406C93.2622 30.9406 93.4688 30.9669 93.701 31.0196V30.2595C93.4402 30.2008 93.1968 30.1704 92.9717 30.1704C92.2097 30.1704 91.6267 30.4568 91.2195 31.0287L91.2206 31.0297Z" fill="#F5F5F5"/>
<path d="M99.3701 30.9902C99.1093 30.7271 98.7932 30.5236 98.424 30.3779C98.0537 30.2332 97.6517 30.1603 97.216 30.1603C96.6575 30.1603 96.1583 30.2757 95.7205 30.5054C95.2817 30.7362 94.9391 31.056 94.6925 31.4679C94.446 31.8788 94.3223 32.3444 94.3223 32.8646C94.3223 33.3848 94.445 33.8494 94.6925 34.2613C94.9391 34.6722 95.2817 34.993 95.7205 35.2238C96.1593 35.4545 96.6575 35.5689 97.216 35.5689C97.6507 35.5689 98.0537 35.496 98.424 35.3523C98.7943 35.2076 99.1093 35.0042 99.3701 34.74V35.4798H100.295V30.2494H99.3701V30.9892V30.9902ZM99.1257 33.8564C98.9477 34.1489 98.7012 34.3767 98.3861 34.5376C98.0711 34.6985 97.7172 34.7795 97.3254 34.7795C96.9337 34.7795 96.5797 34.6985 96.2647 34.5376C95.9497 34.3767 95.7042 34.15 95.5303 33.8564C95.3564 33.564 95.2694 33.233 95.2694 32.8646C95.2694 32.4962 95.3564 32.1652 95.5303 31.8728C95.7042 31.5803 95.9486 31.3535 96.2647 31.1916C96.5797 31.0307 96.9337 30.9497 97.3254 30.9497C97.7172 30.9497 98.0711 31.0307 98.3861 31.1916C98.7012 31.3525 98.9477 31.5803 99.1257 31.8728C99.3037 32.1652 99.3926 32.4962 99.3926 32.8646C99.3926 33.233 99.3037 33.564 99.1257 33.8564Z" fill="#F5F5F5"/>
<path d="M103.836 34.4981C103.665 34.3433 103.58 34.0923 103.58 33.7431V30.9507H105.168V30.2504H103.58V28.9276L102.655 29.0166V30.2504H101.447V30.9507H102.655V33.8423C102.655 34.4151 102.811 34.8361 103.123 35.1054C103.435 35.3756 103.921 35.5102 104.58 35.5102C104.798 35.5102 105.019 35.5001 105.244 35.4809V34.7015C105.049 34.7208 104.864 34.7309 104.69 34.7309C104.291 34.7309 104.006 34.654 103.836 34.4991V34.4981Z" fill="#F5F5F5"/>
<path d="M110.679 30.5317C110.218 30.2848 109.687 30.1613 109.085 30.1613C108.519 30.1613 108.011 30.2767 107.562 30.5064C107.112 30.7372 106.76 31.057 106.506 31.4689C106.253 31.8798 106.126 32.3454 106.126 32.8656C106.126 33.3858 106.253 33.8504 106.506 34.2623C106.76 34.6732 107.112 34.994 107.562 35.2248C108.012 35.4555 108.519 35.5699 109.085 35.5699C109.752 35.5699 110.334 35.4221 110.831 35.1256C111.328 34.8291 111.678 34.4252 111.881 33.9121H110.879C110.72 34.1884 110.482 34.402 110.166 34.5538C109.851 34.7056 109.49 34.7805 109.084 34.7805C108.54 34.7805 108.087 34.6307 107.724 34.3311C107.361 34.0315 107.151 33.6388 107.093 33.152H112.054C112.089 32.56 111.985 32.0367 111.738 31.5833C111.492 31.1299 111.138 30.7787 110.678 30.5327L110.679 30.5317ZM107.115 32.4314C107.209 31.9841 107.434 31.6258 107.789 31.3556C108.144 31.0853 108.576 30.9507 109.084 30.9507C109.592 30.9507 110.027 31.0884 110.389 31.3647C110.752 31.641 110.984 31.9962 111.086 32.4304H107.115V32.4314Z" fill="#F5F5F5"/>
<path d="M119.572 32.8747H122.52C122.375 33.4273 122.058 33.8716 121.568 34.2066C121.078 34.5416 120.503 34.7096 119.843 34.7096C119.306 34.7096 118.825 34.5943 118.396 34.3645C117.967 34.1338 117.633 33.815 117.389 33.4071C117.146 32.9992 117.025 32.5387 117.025 32.0256C117.025 31.5125 117.147 31.052 117.389 30.6441C117.632 30.2362 117.967 29.9174 118.396 29.6866C118.824 29.4559 119.306 29.3415 119.843 29.3415C120.446 29.3415 120.977 29.4812 121.437 29.7605C121.897 30.0399 122.23 30.4265 122.432 30.9204H123.444C123.212 30.1704 122.768 29.5753 122.111 29.134C121.454 28.6938 120.691 28.4731 119.821 28.4731C119.103 28.4731 118.455 28.626 117.878 28.9316C117.302 29.2373 116.85 29.6603 116.524 30.1998C116.198 30.7392 116.034 31.3475 116.034 32.0256C116.034 32.7037 116.198 33.312 116.524 33.8514C116.85 34.3908 117.303 34.8139 117.878 35.1195C118.455 35.4252 119.103 35.578 119.821 35.578C120.539 35.578 121.196 35.4282 121.768 35.1287C122.341 34.8291 122.789 34.4101 123.112 33.8706C123.435 33.3312 123.596 32.7199 123.596 32.0347H119.57V32.8737L119.572 32.8747Z" fill="#F5F5F5"/>
<path d="M126.057 31.0297V30.2504H125.133V35.4808H126.057V32.6389C126.057 32.31 126.137 32.0175 126.297 31.7604C126.456 31.5033 126.677 31.3029 126.961 31.1582C127.244 31.0135 127.563 30.9406 127.918 30.9406C128.099 30.9406 128.306 30.9669 128.538 31.0196V30.2595C128.277 30.2008 128.034 30.1704 127.809 30.1704C127.047 30.1704 126.464 30.4568 126.056 31.0287L126.057 31.0297Z" fill="#F5F5F5"/>
<path d="M133.717 30.5064C133.26 30.2757 132.741 30.1613 132.161 30.1613C131.581 30.1613 131.073 30.2777 130.617 30.5115C130.16 30.7453 129.803 31.0661 129.545 31.474C129.287 31.8819 129.158 32.3454 129.158 32.8656C129.158 33.3858 129.287 33.8494 129.545 34.2572C129.803 34.6651 130.16 34.9859 130.617 35.2197C131.074 35.4535 131.589 35.5699 132.161 35.5699C132.734 35.5699 133.26 35.4545 133.717 35.2248C134.174 34.995 134.529 34.6742 134.783 34.2623C135.037 33.8514 135.163 33.3858 135.163 32.8656C135.163 32.3454 135.037 31.8808 134.783 31.4689C134.529 31.058 134.173 30.7372 133.717 30.5064ZM133.962 33.8514C133.784 34.1408 133.537 34.3675 133.222 34.5325C132.907 34.6965 132.553 34.7795 132.161 34.7795C131.77 34.7795 131.418 34.6975 131.106 34.5325C130.794 34.3686 130.549 34.1408 130.371 33.8514C130.193 33.5619 130.104 33.233 130.104 32.8646C130.104 32.4962 130.193 32.1673 130.371 31.8778C130.549 31.5883 130.794 31.3616 131.106 31.1967C131.418 31.0327 131.77 30.9497 132.161 30.9497C132.553 30.9497 132.907 31.0317 133.222 31.1967C133.537 31.3616 133.784 31.5883 133.962 31.8778C134.14 32.1673 134.229 32.4962 134.229 32.8646C134.229 33.233 134.14 33.5619 133.962 33.8514Z" fill="#F5F5F5"/>
<path d="M140.985 33.151C140.985 33.651 140.816 34.0508 140.478 34.3503C140.141 34.6499 139.686 34.7997 139.113 34.7997C138.583 34.7997 138.183 34.66 137.911 34.3807C137.639 34.1014 137.503 33.6915 137.503 33.152V30.2504H136.578V33.152C136.578 33.9151 136.785 34.5072 137.198 34.9282C137.611 35.3493 138.195 35.5598 138.949 35.5598C139.377 35.5598 139.763 35.4889 140.108 35.3473C140.453 35.2056 140.744 34.9971 140.984 34.7208V35.4808H141.908V30.2504H140.984V33.152L140.985 33.151Z" fill="#F5F5F5"/>
<path d="M148.35 30.5115C147.908 30.2777 147.411 30.1613 146.86 30.1613C146.41 30.1613 146.001 30.2352 145.631 30.3829C145.26 30.5307 144.945 30.7433 144.684 31.0196V30.2504H143.76V37H144.684V34.7106C144.945 34.9869 145.261 35.1995 145.631 35.3473C146.001 35.495 146.41 35.5689 146.86 35.5689C147.411 35.5689 147.909 35.4525 148.35 35.2187C148.792 34.9849 149.137 34.6641 149.384 34.2562C149.63 33.8483 149.754 33.3848 149.754 32.8646C149.754 32.3444 149.63 31.8808 149.384 31.473C149.137 31.0651 148.792 30.7443 148.35 30.5105V30.5115ZM148.541 33.8564C148.363 34.1489 148.118 34.3767 147.806 34.5376C147.494 34.6985 147.138 34.7795 146.74 34.7795C146.343 34.7795 145.985 34.6985 145.668 34.5376C145.352 34.3767 145.106 34.1499 144.929 33.8564C144.751 33.5639 144.662 33.233 144.662 32.8646C144.662 32.4962 144.751 32.1652 144.929 31.8727C145.107 31.5803 145.353 31.3535 145.668 31.1916C145.983 31.0307 146.341 30.9497 146.74 30.9497C147.139 30.9497 147.494 31.0307 147.806 31.1916C148.118 31.3525 148.363 31.5803 148.541 31.8727C148.719 32.1652 148.808 32.4962 148.808 32.8646C148.808 33.233 148.719 33.5639 148.541 33.8564Z" fill="#F5F5F5"/>
</g>
<defs>
<clipPath id="clip0_49_881">
<rect width="150" height="37" fill="white"/>
</clipPath>
</defs>
</svg>
