<svg width="309" height="195" viewBox="0 0 309 195" fill="none" xmlns="http://www.w3.org/2000/svg">
<path d="M308.999 8.21974C308.999 8.21974 282.068 -4.69508 275.177 24.118C275.177 24.118 298.476 36.3099 308.999 8.21974Z" fill="#2A9650"/>
<path d="M269.427 0C269.427 0 256.538 12.3308 272.055 21.8379C272.055 21.8379 283.804 11.3695 269.427 0Z" fill="#2A9650"/>
<path d="M199.81 54.0532V55.9681H183.692V53.6944C183.887 40.5029 166.919 33.3341 157.033 42.9855C154.025 45.9274 152.505 49.4664 152.485 53.6343V55.967H136.327C136.337 54.8001 136.327 53.8935 136.327 53.6933C136.47 40.3028 119.379 33.4621 109.729 42.9844C106.69 45.9351 105.172 49.5058 105.172 53.6933V55.967H89.0037V53.6933C89.0037 45.2275 92.1035 37.969 98.3143 31.9069C109.288 20.1316 132.18 19.8725 142.785 31.0298C143.689 31.9867 145.196 32.0064 146.111 31.0495C151.336 25.5955 158.655 22.8636 168.058 22.8636C180.9 22.5442 192.973 30.9204 197.634 42.2965C197.634 42.2965 199.779 47.6816 199.801 53.6933V53.923C199.801 53.9722 199.811 54.0127 199.811 54.0521" fill="#2A9650"/>
<path d="M248.06 22.864C228.401 22.864 212.222 37.3723 210.252 55.9675H225.917C227.765 45.7168 236.983 37.93 248.061 37.93C259.138 37.93 268.356 45.7179 270.204 55.9675H285.87C283.898 37.3712 267.73 22.864 248.062 22.864" fill="#2A9650"/>
<path d="M37.807 22.864C18.1486 22.864 1.9706 37.3723 -0.000976562 55.9675H15.6647C17.5124 45.7168 26.7308 37.93 37.8081 37.93C48.8854 37.93 58.1037 45.7179 59.9616 55.9675H75.607C73.6354 37.3712 57.4777 22.864 37.8081 22.864" fill="#2A9650"/>
<path d="M89.0024 63.605H105.17V88.9512C105.17 91.1155 104.38 92.9397 102.799 94.3954C99.7296 97.4959 94.4533 97.4959 91.3839 94.3954C89.803 92.9397 89.0024 91.1155 89.0024 88.9512V63.605Z" fill="#EE7924"/>
<path d="M136.326 63.605H152.484V88.9512C152.484 91.1156 151.694 92.9398 150.103 94.3954C147.197 97.5166 141.685 97.4565 138.698 94.3954C137.117 92.9398 136.326 91.1156 136.326 88.9512V63.605Z" fill="#EE7924"/>
<path d="M183.693 63.605H199.81C199.81 73.486 199.81 86.9367 199.79 88.9512C199.78 89.4795 199.77 90.6661 199.174 92.0123C198.794 92.8796 198.219 93.678 197.48 94.3954C195.9 95.9309 194.01 96.6986 191.813 96.6986H191.681C189.442 96.6986 187.564 95.9309 186.065 94.3954C184.484 92.9397 183.694 91.1254 183.694 88.9512V63.605H183.693Z" fill="#EE7924"/>
<path d="M270.203 63.605C268.345 73.8448 259.137 81.6326 248.059 81.6326C236.982 81.6326 227.775 73.8448 225.916 63.605H210.26C212.232 82.1903 228.4 96.6986 248.058 96.6986C267.716 96.6986 283.896 82.1914 285.857 63.605H270.201H270.203Z" fill="#EE7924"/>
<path d="M59.9601 63.605C59.8982 63.9539 59.8272 64.3027 59.7439 64.6418C57.4649 74.3642 48.5135 81.6326 37.8066 81.6326C27.0997 81.6326 17.5211 73.8448 15.6632 63.605H0.00878906C1.98037 82.1903 18.1482 96.6986 37.8077 96.6986C46.0093 96.6986 53.5961 94.1756 59.807 89.8885C60.0333 91.6536 60.8643 93.2383 62.0961 94.4358C63.5531 95.851 65.5551 96.7194 67.7732 96.7194C72.2186 96.7194 75.8116 93.2296 75.8116 88.9119V63.6061H59.9612L59.9601 63.605Z" fill="#EE7924"/>
<path d="M258.856 113.972H29.9557C14.2245 113.972 1.47192 126.358 1.47192 141.638C1.47192 156.917 14.2245 169.304 29.9557 169.304H258.856C274.587 169.304 287.34 156.917 287.34 141.638C287.34 126.358 274.587 113.972 258.856 113.972Z" fill="#2A9650"/>
<path d="M118.898 123.83C123.278 123.83 126.916 125.34 129.811 128.36C132.706 131.381 134.152 135.077 134.152 139.451C134.152 143.824 132.706 147.522 129.811 150.541C126.916 153.562 123.278 155.071 118.898 155.071H106.353V123.83H118.898ZM118.898 151.143C122.175 151.143 124.855 150.027 126.938 147.795C129.021 145.564 130.063 142.782 130.063 139.449C130.063 136.117 129.021 133.335 126.938 131.104C124.855 128.873 122.174 127.756 118.898 127.756H110.627V151.142H118.898V151.143Z" fill="white"/>
<path d="M141.411 155.561C140.585 155.561 139.879 155.278 139.298 154.713C138.716 154.148 138.425 153.463 138.425 152.661C138.425 151.858 138.716 151.173 139.298 150.608C139.88 150.042 140.585 149.76 141.411 149.76C142.238 149.76 142.981 150.044 143.548 150.608C144.115 151.173 144.399 151.858 144.399 152.661C144.399 153.463 144.115 154.149 143.548 154.713C142.981 155.279 142.269 155.561 141.411 155.561Z" fill="white"/>
<path d="M177.183 150.92C173.95 154.074 170.007 155.651 165.351 155.651C160.695 155.651 156.759 154.074 153.542 150.92C150.325 147.767 148.717 143.943 148.717 139.449C148.717 134.956 150.325 131.097 153.542 127.957C156.759 124.819 160.694 123.249 165.351 123.249C170.008 123.249 173.95 124.819 177.183 127.957C180.415 131.097 182.03 134.927 182.03 139.449C182.03 143.972 180.415 147.765 177.183 150.92ZM156.506 148.086C158.879 150.422 161.828 151.589 165.351 151.589C168.874 151.589 171.822 150.422 174.197 148.086C176.57 145.751 177.757 142.872 177.757 139.45C177.757 136.028 176.57 133.106 174.197 130.77C171.822 128.435 168.874 127.267 165.351 127.267C161.828 127.267 158.879 128.435 156.506 130.77C154.131 133.106 152.944 136 152.944 139.45C152.944 142.901 154.131 145.751 156.506 148.086Z" fill="white"/>
<g clip-path="url(#clip0_547_931)">
<path d="M54.2315 177.079C56.1055 177.079 57.6627 177.743 58.9008 179.071C60.1389 180.399 60.759 182.025 60.759 183.949C60.759 185.873 60.14 187.499 58.9008 188.827C57.6627 190.155 56.1055 190.819 54.2315 190.819H48.8645V177.079H54.2315ZM54.2315 189.092C55.6336 189.092 56.7807 188.601 57.6716 187.62C58.5626 186.639 59.0086 185.415 59.0086 183.95C59.0086 182.485 58.5626 181.262 57.6716 180.28C56.7796 179.299 55.6336 178.808 54.2315 178.808H50.6924V189.094H54.2315V189.092Z" fill="white"/>
<path d="M64.0026 186.697C64.1734 187.574 64.5756 188.254 65.2115 188.739C65.8474 189.223 66.6305 189.466 67.5607 189.466C68.8584 189.466 69.8021 188.988 70.392 188.032L71.8469 188.857C70.8897 190.335 69.4482 191.074 67.5214 191.074C65.962 191.074 64.6936 190.586 63.7172 189.611C62.7409 188.637 62.2522 187.403 62.2522 185.911C62.2522 184.419 62.7308 183.202 63.6869 182.221C64.643 181.239 65.8822 180.749 67.4023 180.749C68.8438 180.749 70.0201 181.256 70.9313 182.27C71.8424 183.284 72.2974 184.504 72.2974 185.931C72.2974 186.18 72.2783 186.435 72.239 186.696H64.0015L64.0026 186.697ZM67.4035 182.36C66.4856 182.36 65.7261 182.619 65.1227 183.135C64.5194 183.652 64.1464 184.342 64.0026 185.205H70.5695C70.4246 184.277 70.0583 183.57 69.4685 183.085C68.8786 182.601 68.191 182.359 67.4046 182.359L67.4035 182.36Z" fill="white"/>
<path d="M74.2659 190.819V176.49H75.9758V190.819H74.2659Z" fill="white"/>
<path d="M79.4563 179.218C79.1283 179.218 78.853 179.107 78.6306 178.885C78.4081 178.663 78.2969 178.393 78.2969 178.08C78.2969 177.767 78.4081 177.495 78.6306 177.266C78.853 177.037 79.1283 176.923 79.4563 176.923C79.7844 176.923 80.0394 177.037 80.2619 177.266C80.4843 177.495 80.5956 177.766 80.5956 178.08C80.5956 178.394 80.4843 178.663 80.2619 178.885C80.0383 179.108 79.7698 179.218 79.4563 179.218ZM78.5912 190.818V181.005H80.3012V190.819H78.5912V190.818Z" fill="white"/>
<path d="M89.7971 181.005H91.6452L87.713 190.819H85.7086L81.7764 181.005H83.6245L86.7108 188.973L89.7971 181.005Z" fill="white"/>
<path d="M93.9057 186.697C94.0765 187.574 94.4787 188.254 95.1146 188.739C95.7505 189.223 96.5336 189.466 97.4638 189.466C98.7615 189.466 99.7052 188.988 100.295 188.032L101.75 188.857C100.793 190.335 99.3513 191.074 97.4245 191.074C95.8651 191.074 94.5966 190.586 93.6203 189.611C92.644 188.637 92.1553 187.403 92.1553 185.911C92.1553 184.419 92.6339 183.202 93.59 182.221C94.5461 181.239 95.7853 180.749 97.3054 180.749C98.7469 180.749 99.9232 181.256 100.834 182.27C101.745 183.284 102.201 184.504 102.201 185.931C102.201 186.18 102.181 186.435 102.142 186.696H93.9046L93.9057 186.697ZM97.3065 182.36C96.3886 182.36 95.6291 182.619 95.0258 183.135C94.4225 183.652 94.0495 184.342 93.9057 185.205H100.473C100.328 184.277 99.9614 183.57 99.3715 183.085C98.7817 182.601 98.0941 182.359 97.3077 182.359L97.3065 182.36Z" fill="white"/>
<path d="M105.879 182.654C106.442 181.437 107.464 180.829 108.946 180.829V182.614C108.107 182.575 107.387 182.797 106.783 183.282C106.18 183.766 105.879 184.545 105.879 185.617V190.818H104.169V181.005H105.879V182.654Z" fill="white"/>
<path d="M117.695 181.005H119.523L115.512 191.427C115.093 192.539 114.506 193.387 113.752 193.969C112.998 194.551 112.131 194.809 111.148 194.744V193.155C112.349 193.246 113.23 192.577 113.792 191.148L113.979 190.779L109.693 181.004H111.521L114.798 188.528L117.694 181.004L117.695 181.005Z" fill="white"/>
<path d="M134.17 189.582C133.161 190.577 131.935 191.074 130.494 191.074C129.052 191.074 127.83 190.577 126.827 189.582C125.824 188.587 125.322 187.365 125.322 185.912C125.322 184.459 125.823 183.236 126.827 182.242C127.829 181.248 129.051 180.75 130.494 180.75C131.936 180.75 133.161 181.247 134.17 182.242C135.179 183.237 135.683 184.459 135.683 185.912C135.683 187.365 135.179 188.588 134.17 189.582ZM130.494 189.405C131.477 189.405 132.303 189.072 132.971 188.404C133.64 187.737 133.973 186.906 133.973 185.912C133.973 184.918 133.64 184.086 132.971 183.42C132.303 182.752 131.477 182.419 130.494 182.419C129.511 182.419 128.705 182.752 128.037 183.42C127.368 184.087 127.034 184.918 127.034 185.912C127.034 186.906 127.369 187.737 128.037 188.404C128.705 189.072 129.524 189.405 130.494 189.405Z" fill="white"/>
<path d="M139.42 182.654C139.983 181.437 141.005 180.829 142.487 180.829V182.614C141.648 182.575 140.928 182.797 140.324 183.282C139.721 183.766 139.42 184.545 139.42 185.617V190.818H137.71V181.005H139.42V182.654Z" fill="white"/>
<path d="M151.786 181.005H153.477V190.407C153.477 191.859 152.985 192.987 152.003 193.793C151.02 194.597 149.84 195 148.464 195C147.363 195 146.413 194.793 145.614 194.382C144.814 193.97 144.212 193.377 143.805 192.605L145.299 191.76C145.836 192.86 146.905 193.409 148.504 193.409C149.526 193.409 150.328 193.141 150.912 192.605C151.495 192.068 151.788 191.335 151.788 190.407V189.013C150.922 190.322 149.69 190.976 148.091 190.976C146.689 190.976 145.503 190.479 144.533 189.485C143.563 188.491 143.078 187.279 143.078 185.854C143.078 184.428 143.562 183.22 144.533 182.232C145.503 181.244 146.689 180.75 148.091 180.75C149.703 180.75 150.935 181.397 151.788 182.693V181.005H151.786ZM145.79 188.346C146.459 189.013 147.291 189.347 148.287 189.347C149.282 189.347 150.115 189.013 150.783 188.346C151.452 187.679 151.785 186.847 151.785 185.854C151.785 184.86 151.45 184.048 150.783 183.38C150.115 182.713 149.282 182.38 148.287 182.38C147.291 182.38 146.459 182.713 145.79 183.38C145.122 184.048 144.788 184.872 144.788 185.854C144.788 186.835 145.123 187.679 145.79 188.346Z" fill="white"/>
<path d="M164.211 181.005H165.921V190.819H164.211V189.131C163.36 190.427 162.12 191.075 160.496 191.075C159.119 191.075 157.946 190.575 156.977 189.573C156.007 188.573 155.522 187.352 155.522 185.912C155.522 184.472 156.006 183.253 156.977 182.251C157.946 181.25 159.119 180.749 160.496 180.749C162.12 180.749 163.36 181.396 164.211 182.692V181.004V181.005ZM160.711 189.425C161.707 189.425 162.539 189.089 163.208 188.415C163.876 187.74 164.21 186.907 164.21 185.912C164.21 184.917 163.876 184.084 163.208 183.41C162.539 182.736 161.707 182.399 160.711 182.399C159.716 182.399 158.903 182.736 158.234 183.41C157.566 184.084 157.232 184.918 157.232 185.912C157.232 186.906 157.567 187.74 158.234 188.415C158.903 189.089 159.728 189.425 160.711 189.425Z" fill="white"/>
<path d="M173.413 180.749C174.565 180.749 175.49 181.112 176.184 181.838C176.879 182.564 177.227 183.549 177.227 184.793V190.818H175.517V184.89C175.517 184.093 175.301 183.474 174.868 183.035C174.435 182.596 173.838 182.378 173.079 182.378C172.227 182.378 171.539 182.642 171.014 183.173C170.489 183.702 170.228 184.518 170.228 185.617V190.818H168.518V181.005H170.228V182.418C170.922 181.306 171.984 180.75 173.413 180.75V180.749Z" fill="white"/>
<path d="M180.47 179.218C180.142 179.218 179.867 179.107 179.645 178.885C179.421 178.663 179.311 178.393 179.311 178.08C179.311 177.767 179.422 177.495 179.645 177.266C179.867 177.037 180.142 176.923 180.47 176.923C180.799 176.923 181.054 177.037 181.276 177.266C181.499 177.495 181.611 177.766 181.611 178.08C181.611 178.394 181.5 178.663 181.276 178.885C181.054 179.108 180.784 179.218 180.47 179.218ZM179.605 190.818V181.005H181.315V190.819H179.605V190.818Z" fill="white"/>
<path d="M185.888 189.19H191.118V190.818H183.563V189.671L188.59 182.633H183.774V181.005H190.93V182.13L185.888 189.19Z" fill="white"/>
<path d="M200.72 181.005H202.43V190.819H200.72V189.131C199.869 190.427 198.63 191.075 197.005 191.075C195.629 191.075 194.456 190.575 193.486 189.573C192.517 188.573 192.031 187.352 192.031 185.912C192.031 184.472 192.517 183.253 193.486 182.251C194.456 181.25 195.629 180.749 197.005 180.749C198.63 180.749 199.869 181.396 200.72 182.692V181.004V181.005ZM197.221 189.425C198.216 189.425 199.049 189.089 199.717 188.415C200.386 187.74 200.719 186.907 200.719 185.912C200.719 184.917 200.386 184.084 199.717 183.41C199.049 182.736 198.216 182.399 197.221 182.399C196.225 182.399 195.412 182.736 194.743 183.41C194.075 184.084 193.741 184.918 193.741 185.912C193.741 186.906 194.076 187.74 194.743 188.415C195.412 189.089 196.238 189.425 197.221 189.425Z" fill="white"/>
<path d="M210.374 182.654H207.759V187.973C207.759 188.457 207.854 188.8 208.045 189.003C208.234 189.206 208.527 189.311 208.92 189.317C209.313 189.324 209.797 189.314 210.375 189.288V190.819C208.881 191.016 207.786 190.895 207.092 190.456C206.398 190.017 206.05 189.19 206.05 187.973V182.654H204.104V181.005H206.05V178.767L207.76 178.257V181.005H210.375V182.654H210.374Z" fill="white"/>
<path d="M213.264 179.218C212.936 179.218 212.661 179.107 212.439 178.885C212.215 178.663 212.105 178.393 212.105 178.08C212.105 177.767 212.216 177.495 212.439 177.266C212.661 177.037 212.936 176.923 213.264 176.923C213.593 176.923 213.848 177.037 214.07 177.266C214.292 177.495 214.405 177.766 214.405 178.08C214.405 178.394 214.294 178.663 214.07 178.885C213.848 179.108 213.578 179.218 213.264 179.218ZM212.399 190.818V181.005H214.109V190.819H212.399V190.818Z" fill="white"/>
<path d="M225.021 189.582C224.011 190.577 222.786 191.074 221.345 191.074C219.903 191.074 218.681 190.577 217.677 189.582C216.675 188.587 216.173 187.365 216.173 185.912C216.173 184.459 216.674 183.236 217.677 182.242C218.68 181.248 219.902 180.75 221.345 180.75C222.787 180.75 224.012 181.247 225.021 182.242C226.03 183.237 226.534 184.459 226.534 185.912C226.534 187.365 226.03 188.588 225.021 189.582ZM221.345 189.405C222.328 189.405 223.153 189.072 223.822 188.404C224.49 187.737 224.824 186.906 224.824 185.912C224.824 184.918 224.489 184.086 223.822 183.42C223.155 182.753 222.328 182.419 221.345 182.419C220.362 182.419 219.556 182.752 218.887 183.42C218.219 184.087 217.885 184.918 217.885 185.912C217.885 186.906 218.22 187.737 218.887 188.404C219.555 189.072 220.375 189.405 221.345 189.405Z" fill="white"/>
<path d="M233.455 180.749C234.608 180.749 235.532 181.112 236.227 181.838C236.921 182.564 237.269 183.549 237.269 184.793V190.818H235.559V184.89C235.559 184.093 235.344 183.474 234.91 183.035C234.477 182.596 233.881 182.378 233.121 182.378C232.27 182.378 231.581 182.642 231.056 183.173C230.532 183.702 230.27 184.518 230.27 185.617V190.818H228.56V181.005H230.27V182.418C230.964 181.306 232.026 180.75 233.455 180.75V180.749Z" fill="white"/>
</g>
<defs>
<clipPath id="clip0_547_931">
<rect width="188.405" height="18.5099" fill="white" transform="translate(48.8645 176.49)"/>
</clipPath>
</defs>
</svg>
