<svg width="391" height="261" viewBox="0 0 391 261" fill="none" xmlns="http://www.w3.org/2000/svg">
<path d="M0.666667 28C0.666667 30.9455 3.05448 33.3333 6 33.3333C8.94552 33.3333 11.3333 30.9455 11.3333 28C11.3333 25.0545 8.94552 22.6667 6 22.6667C3.05448 22.6667 0.666667 25.0545 0.666667 28ZM5 28V236H7V28H5ZM30 261H366V259H30V261ZM391 236V52H389V236H391ZM366 27H110.5V29H366V27ZM391 52C391 38.1929 379.807 27 366 27V29C378.703 29 389 39.2975 389 52H391ZM366 261C379.807 261 391 249.807 391 236H389C389 248.703 378.703 259 366 259V261ZM5 236C5 249.807 16.1929 261 30 261V259C17.2975 259 7 248.703 7 236H5Z" fill="white"/>
<path d="M33.6667 7.00004V5.83337C33.3572 5.83337 33.0605 5.95629 32.8417 6.17508C32.6229 6.39388 32.5 6.69062 32.5 7.00004H33.6667ZM59.3333 7.00004H60.5C60.5 6.69062 60.3771 6.39388 60.1583 6.17508C59.9395 5.95629 59.6428 5.83337 59.3333 5.83337V7.00004ZM59.3333 21V19.8334C59.0239 19.8334 58.7272 19.9563 58.5084 20.1751C58.2896 20.3939 58.1667 20.6906 58.1667 21H59.3333ZM33.6667 8.16671H59.3333V5.83337H33.6667V8.16671ZM58.1667 7.00004V44.3334H60.5V7.00004H58.1667ZM34.8333 39.6667V7.00004H32.5V39.6667H34.8333ZM59.3333 22.1667H71V19.8334H59.3333V22.1667ZM79.1667 30.3334V39.6667H81.5V30.3334H79.1667ZM60.5 44.3334V21H58.1667V44.3334H60.5ZM73.4733 46.8067C72.8171 47.4621 71.9275 47.8303 71 47.8303C70.0725 47.8303 69.1829 47.4621 68.5267 46.8067L66.8747 48.4587C67.4164 49.0005 68.0595 49.4304 68.7673 49.7236C69.4752 50.0169 70.2338 50.1678 71 50.1678C71.7662 50.1678 72.5248 50.0169 73.2327 49.7236C73.9405 49.4304 74.5836 49.0005 75.1253 48.4587L73.4733 46.8067ZM68.5267 41.86C69.1829 41.2046 70.0725 40.8365 71 40.8365C71.9275 40.8365 72.8171 41.2046 73.4733 41.86L75.1253 40.208C74.5836 39.6662 73.9405 39.2364 73.2327 38.9431C72.5248 38.6499 71.7662 38.499 71 38.499C70.2338 38.499 69.4752 38.6499 68.7673 38.9431C68.0595 39.2364 67.4164 39.6662 66.8747 40.208L68.5267 41.86ZM45.4733 46.8067C44.8171 47.4621 43.9275 47.8303 43 47.8303C42.0725 47.8303 41.1829 47.4621 40.5267 46.8067L38.8747 48.4587C39.4164 49.0005 40.0595 49.4304 40.7673 49.7236C41.4752 50.0169 42.2338 50.1678 43 50.1678C43.7662 50.1678 44.5248 50.0169 45.2327 49.7236C45.9405 49.4304 46.5836 49.0005 47.1253 48.4587L45.4733 46.8067ZM40.5267 41.86C41.1829 41.2046 42.0725 40.8365 43 40.8365C43.9275 40.8365 44.8171 41.2046 45.4733 41.86L47.1253 40.208C46.5836 39.6662 45.9405 39.2364 45.2327 38.9431C44.5248 38.6499 43.7662 38.499 43 38.499C42.2338 38.499 41.4752 38.6499 40.7673 38.9431C40.0595 39.2364 39.4164 39.6662 38.8747 40.208L40.5267 41.86ZM73.4733 41.86C74.1593 42.5414 74.5 43.435 74.5 44.3334H76.8333C76.8333 42.8424 76.264 41.3467 75.1253 40.208L73.4733 41.86ZM74.5 44.3334C74.5 45.2317 74.1593 46.1254 73.4733 46.8067L75.1253 48.4587C75.6676 47.9174 76.0976 47.2743 76.3907 46.5664C76.6838 45.8584 76.8342 45.0996 76.8333 44.3334H74.5ZM66.3333 43.1667H59.3333V45.5H66.3333V43.1667ZM68.5267 46.8067C68.2009 46.4825 67.9426 46.097 67.7664 45.6726C67.5902 45.2481 67.4996 44.793 67.5 44.3334H65.1667C65.1667 45.8244 65.736 47.32 66.8747 48.4587L68.5267 46.8067ZM67.5 44.3334C67.5 43.435 67.8407 42.5414 68.5267 41.86L66.8747 40.208C66.3324 40.7494 65.9024 41.3924 65.6093 42.1004C65.3162 42.8083 65.1658 43.5672 65.1667 44.3334H67.5ZM40.5267 46.8067C40.2009 46.4825 39.9426 46.097 39.7664 45.6726C39.5902 45.2481 39.4996 44.793 39.5 44.3334H37.1667C37.1667 45.8244 37.736 47.32 38.8747 48.4587L40.5267 46.8067ZM39.5 44.3334C39.5 43.435 39.8407 42.5414 40.5267 41.86L38.8747 40.208C38.3324 40.7494 37.9024 41.3924 37.6093 42.1004C37.3162 42.8083 37.1658 43.5672 37.1667 44.3334H39.5ZM59.3333 43.1667H47.6667V45.5H59.3333V43.1667ZM45.4733 41.86C46.1593 42.5414 46.5 43.435 46.5 44.3334H48.8333C48.8333 42.8424 48.264 41.3467 47.1253 40.208L45.4733 41.86ZM46.5 44.3334C46.5 45.2317 46.1593 46.1254 45.4733 46.8067L47.1253 48.4587C47.6676 47.9174 48.0976 47.2743 48.3907 46.5664C48.6838 45.8584 48.8342 45.0996 48.8333 44.3334H46.5ZM79.1667 39.6667C79.1667 40.595 78.7979 41.4852 78.1415 42.1416C77.4852 42.798 76.5949 43.1667 75.6667 43.1667V45.5C77.2138 45.5 78.6975 44.8855 79.7915 43.7915C80.8854 42.6975 81.5 41.2138 81.5 39.6667H79.1667ZM71 22.1667C73.1659 22.1667 75.2432 23.0271 76.7747 24.5587C78.3063 26.0902 79.1667 28.1674 79.1667 30.3334H81.5C81.5 27.5486 80.3938 24.8779 78.4246 22.9088C76.4555 20.9396 73.7848 19.8334 71 19.8334V22.1667ZM32.5 39.6667C32.5 41.2138 33.1146 42.6975 34.2085 43.7915C35.3025 44.8855 36.7862 45.5 38.3333 45.5V43.1667C37.4051 43.1667 36.5148 42.798 35.8585 42.1416C35.2021 41.4852 34.8333 40.595 34.8333 39.6667H32.5Z" fill="white"/>
<path d="M33.6666 18.6667H40.6666M33.6666 28.0001H45.3333" stroke="white" stroke-linecap="round" stroke-linejoin="round"/>
</svg>
