<svg width="24" height="24" viewBox="0 0 24 24" fill="none" xmlns="http://www.w3.org/2000/svg">
<path opacity="0.5" d="M13.106 22H10.894C7.44698 22 5.72398 22 4.54898 20.988C3.37398 19.976 3.12998 18.283 2.64298 14.895L2.36398 12.958C1.98398 10.321 1.79398 9.002 2.33498 7.875C2.87498 6.748 4.02598 6.062 6.32698 4.692L7.71198 3.867C9.79998 2.622 10.846 2 12 2C13.154 2 14.199 2.622 16.288 3.867L17.673 4.692C19.973 6.062 21.124 6.748 21.665 7.875C22.205 9.002 22.015 10.321 21.635 12.958L21.357 14.895C20.87 18.283 20.626 19.976 19.451 20.988C18.276 22 16.553 22 13.106 22Z" fill="#637381"/>
<path d="M8.25 18C8.25 17.8011 8.32902 17.6103 8.46967 17.4697C8.61032 17.329 8.80109 17.25 9 17.25H15C15.1989 17.25 15.3897 17.329 15.5303 17.4697C15.671 17.6103 15.75 17.8011 15.75 18C15.75 18.1989 15.671 18.3897 15.5303 18.5303C15.3897 18.671 15.1989 18.75 15 18.75H9C8.80109 18.75 8.61032 18.671 8.46967 18.5303C8.32902 18.3897 8.25 18.1989 8.25 18Z" fill="#637381"/>
</svg>
