<svg width="308" height="195" viewBox="0 0 308 195" fill="none" xmlns="http://www.w3.org/2000/svg">
<path d="M307.999 8.44075C307.999 8.44075 281.155 -4.82068 274.287 24.7657C274.287 24.7657 297.51 37.2848 307.999 8.44075Z" fill="#2A9650"/>
<path d="M268.555 0.00012207C268.555 0.00012207 255.708 12.6619 271.175 22.424C271.175 22.424 282.886 11.6748 268.555 0.00012207Z" fill="#2A9650"/>
<path d="M199.163 55.5041V57.4704H183.098V55.1357C183.292 41.5902 166.379 34.229 156.525 44.1394C153.527 47.1602 152.012 50.7943 151.992 55.074V57.4693H135.886C135.896 56.2711 135.886 55.3401 135.886 55.1346C136.029 41.3847 118.993 34.3604 109.375 44.1383C106.346 47.1681 104.832 50.8347 104.832 55.1346V57.4693H88.7161V55.1346C88.7161 46.4415 91.8058 38.9882 97.9966 32.7635C108.935 20.6722 131.753 20.4061 142.323 31.8628C143.224 32.8455 144.727 32.8657 145.638 31.8831C150.847 26.2827 158.142 23.4775 167.515 23.4775C180.315 23.1495 192.348 31.7505 196.995 43.4319C196.995 43.4319 199.133 48.9615 199.154 55.1346V55.3704C199.154 55.421 199.164 55.4625 199.164 55.503" fill="#2A9650"/>
<path d="M247.256 23.4769C227.661 23.4769 211.534 38.3746 209.57 57.4688H225.185C227.027 46.943 236.215 38.9473 247.257 38.9473C258.298 38.9473 267.487 46.9441 269.328 57.4688H284.943C282.978 38.3734 266.863 23.4769 247.258 23.4769" fill="#2A9650"/>
<path d="M37.6855 23.4769C18.0908 23.4769 1.96519 38.3746 0 57.4688H15.6149C17.4567 46.943 26.6451 38.9473 37.6866 38.9473C48.728 38.9473 57.9165 46.9441 59.7684 57.4688H75.3631C73.3979 38.3734 57.2925 23.4769 37.6866 23.4769" fill="#2A9650"/>
<path d="M88.7146 65.3121H104.83V91.3386C104.83 93.561 104.042 95.4342 102.466 96.9289C99.407 100.113 94.1478 100.113 91.0883 96.9289C89.5126 95.4342 88.7146 93.561 88.7146 91.3386V65.3121Z" fill="#EE7924"/>
<path d="M135.887 65.3121H151.993V91.3386C151.993 93.561 151.205 95.4342 149.619 96.9289C146.722 100.134 141.228 100.072 138.251 96.9289C136.675 95.4342 135.887 93.561 135.887 91.3386V65.3121Z" fill="#EE7924"/>
<path d="M183.098 65.3121H199.163C199.163 75.4584 199.163 89.2701 199.143 91.3386C199.133 91.881 199.123 93.0995 198.529 94.4819C198.151 95.3724 197.578 96.1922 196.841 96.9289C195.266 98.5056 193.382 99.2939 191.193 99.2939H191.06C188.829 99.2939 186.957 98.5056 185.463 96.9289C183.887 95.4342 183.1 93.5711 183.1 91.3386V65.3121H183.098Z" fill="#EE7924"/>
<path d="M269.327 65.3121C267.475 75.8267 258.297 83.8235 247.255 83.8235C236.214 83.8235 227.036 75.8267 225.183 65.3121H209.579C211.544 84.3963 227.659 99.2939 247.254 99.2939C266.849 99.2939 282.975 84.3974 284.93 65.3121H269.326H269.327Z" fill="#EE7924"/>
<path d="M59.7672 65.3121C59.7054 65.6704 59.6347 66.0286 59.5517 66.3767C57.2801 76.3601 48.3576 83.8235 37.6854 83.8235C27.0132 83.8235 17.4655 75.8267 15.6137 65.3121H0.0100098C1.9752 84.3963 18.0907 99.2939 37.6865 99.2939C45.8615 99.2939 53.4238 96.7031 59.6145 92.301C59.8401 94.1135 60.6684 95.7407 61.8962 96.9704C63.3485 98.4236 65.344 99.3152 67.555 99.3152C71.9859 99.3152 75.5673 95.7318 75.5673 91.2982V65.3133H59.7683L59.7672 65.3121Z" fill="#EE7924"/>
<path d="M258.019 117.031H29.86C14.1798 117.031 1.46851 129.749 1.46851 145.439C1.46851 161.128 14.1798 173.847 29.86 173.847H258.019C273.699 173.847 286.41 161.128 286.41 145.439C286.41 129.749 273.699 117.031 258.019 117.031Z" fill="#2A9650"/>
<path d="M119.279 143.33V145.255C119.279 149.441 117.843 152.916 114.973 155.681C112.102 158.445 108.301 159.828 103.569 159.828C98.8377 159.828 94.6458 158.216 91.455 154.993C88.2643 151.77 86.6694 147.838 86.6694 143.193C86.6694 138.548 88.2643 134.615 91.455 131.392C94.6458 128.169 98.6525 126.558 103.477 126.558C106.438 126.558 109.156 127.269 111.63 128.689C114.104 130.11 116.012 131.982 117.355 134.303L113.691 136.457C112.775 134.715 111.393 133.318 109.546 132.264C107.698 131.209 105.66 130.683 103.431 130.683C99.767 130.683 96.7591 131.882 94.409 134.281C92.0577 136.68 90.8827 139.65 90.8827 143.194C90.8827 146.738 92.0656 149.702 94.4326 152.085C96.7984 154.468 99.8601 155.659 103.615 155.659C106.822 155.659 109.417 154.873 111.401 153.299C113.385 151.725 114.592 149.686 115.019 147.181H103.248V143.331H119.279V143.33Z" fill="white"/>
<path d="M130.317 140.168C131.629 137.326 134.01 135.906 137.462 135.906V140.076C135.508 139.983 133.827 140.503 132.423 141.634C131.018 142.765 130.317 144.583 130.317 147.088V159.232H126.333V136.318H130.317V140.168Z" fill="white"/>
<path d="M161.736 156.345C159.384 158.667 156.529 159.827 153.171 159.827C149.813 159.827 146.966 158.666 144.629 156.345C142.294 154.024 141.125 151.167 141.125 147.775C141.125 144.384 142.294 141.528 144.629 139.206C146.965 136.884 149.812 135.723 153.171 135.723C156.53 135.723 159.384 136.884 161.736 139.206C164.087 141.528 165.262 144.384 165.262 147.775C165.262 151.167 164.087 154.024 161.736 156.345ZM153.171 155.933C155.461 155.933 157.384 155.153 158.942 153.596C160.5 152.037 161.278 150.098 161.278 147.775C161.278 145.453 160.499 143.513 158.942 141.955C157.386 140.396 155.462 139.618 153.171 139.618C150.88 139.618 149.003 140.397 147.446 141.955C145.89 143.513 145.111 145.453 145.111 147.775C145.111 150.098 145.89 152.037 147.446 153.596C149.004 155.153 150.911 155.933 153.171 155.933Z" fill="white"/>
<path d="M198.329 136.318H202.068L195.397 159.231H191.321L185.858 142.048L180.429 159.231H176.166L169.429 136.318H173.6L178.634 153.731L184.039 136.318H187.968L193.36 153.736L198.329 136.318Z" fill="white"/>
<path d="M50.7004 192.857C49.3189 194.246 47.6331 194.94 45.6432 194.94C43.6534 194.94 41.971 194.246 40.5961 192.857C39.2213 191.469 38.5344 189.785 38.5344 187.807C38.5344 185.83 39.2213 184.129 40.5961 182.747C41.971 181.365 43.6534 180.674 45.6432 180.674C47.6331 180.674 49.3189 181.365 50.7004 182.747C52.082 184.129 52.7723 185.816 52.7723 187.807C52.7723 189.798 52.082 191.469 50.7004 192.857ZM41.8621 191.61C42.8767 192.638 44.1371 193.153 45.6432 193.153C47.1494 193.153 48.4086 192.638 49.4244 191.61C50.4389 190.581 50.9462 189.313 50.9462 187.807C50.9462 186.301 50.4389 185.013 49.4244 183.985C48.4098 182.956 47.1494 182.442 45.6432 182.442C44.1371 182.442 42.8767 182.956 41.8621 183.985C40.8475 185.013 40.3402 186.287 40.3402 187.807C40.3402 189.328 40.8475 190.581 41.8621 191.61Z" fill="white"/>
<path d="M56.5051 186.51C57.0673 185.292 58.0887 184.683 59.569 184.683V186.471C58.7306 186.432 58.0112 186.654 57.4085 187.139C56.8058 187.624 56.5051 188.404 56.5051 189.477V194.685H54.7969V184.858H56.5051V186.509V186.51Z" fill="white"/>
<path d="M65.3214 194.941C63.8411 194.941 62.611 194.446 61.629 193.457C60.647 192.468 60.1565 191.24 60.1565 189.773C60.1565 188.305 60.647 187.077 61.629 186.088C62.611 185.099 63.8411 184.604 65.3214 184.604C66.29 184.604 67.1609 184.837 67.9331 185.302C68.7052 185.767 69.281 186.392 69.6615 187.178L68.2283 188.004C67.9791 187.479 67.5964 187.06 67.079 186.746C66.5616 186.432 65.9758 186.274 65.3214 186.274C64.3394 186.274 63.5179 186.608 62.8568 187.277C62.1958 187.945 61.8647 188.778 61.8647 189.773C61.8647 190.767 62.1946 191.581 62.8568 192.249C63.5179 192.917 64.3394 193.25 65.3214 193.25C65.9758 193.25 66.565 193.097 67.0891 192.789C67.6121 192.481 68.0117 192.065 68.2866 191.541L69.74 192.387C69.3214 193.159 68.7187 193.779 67.9331 194.244C67.1475 194.709 66.2765 194.942 65.3214 194.942V194.941Z" fill="white"/>
<path d="M76.3217 184.604C77.4732 184.604 78.3969 184.968 79.0905 185.694C79.7841 186.421 80.1309 187.407 80.1309 188.652V194.685H78.4227V188.75C78.4227 187.952 78.2061 187.332 77.7751 186.893C77.343 186.454 76.7471 186.235 75.9884 186.235C75.1377 186.235 74.4497 186.5 73.9267 187.031C73.4025 187.561 73.141 188.377 73.141 189.478V194.685H71.4329V180.928H73.141V186.274C73.8346 185.161 74.8952 184.604 76.3228 184.604H76.3217Z" fill="white"/>
<path d="M90.6388 184.859H92.347V194.686H90.6388V192.995C89.7881 194.293 88.5502 194.942 86.9273 194.942C85.5524 194.942 84.3807 194.441 83.4122 193.438C82.4436 192.436 81.9587 191.214 81.9587 189.774C81.9587 188.333 82.4425 187.111 83.4122 186.108C84.3807 185.105 85.5524 184.604 86.9273 184.604C88.5502 184.604 89.7881 185.252 90.6388 186.55V184.859ZM87.1428 193.29C88.1371 193.29 88.9688 192.953 89.6366 192.278C90.3044 191.603 90.6377 190.769 90.6377 189.773C90.6377 188.776 90.3044 187.942 89.6366 187.267C88.9688 186.592 88.1371 186.255 87.1428 186.255C86.1484 186.255 85.3358 186.592 84.668 187.267C84.0003 187.942 83.6669 188.778 83.6669 189.773C83.6669 190.767 84.0014 191.603 84.668 192.278C85.3358 192.953 86.1607 193.29 87.1428 193.29Z" fill="white"/>
<path d="M96.6493 186.51C97.2116 185.292 98.2329 184.683 99.7133 184.683V186.471C98.8749 186.432 98.1555 186.654 97.5528 187.139C96.9501 187.624 96.6493 188.404 96.6493 189.477V194.685H94.9412V184.858H96.6493V186.509V186.51Z" fill="white"/>
<path d="M108.982 180.928H110.69V194.685H108.982V192.995C108.132 194.292 106.894 194.941 105.271 194.941C103.896 194.941 102.724 194.44 101.756 193.437C100.787 192.436 100.302 191.214 100.302 189.773C100.302 188.332 100.786 187.111 101.756 186.108C102.724 185.105 103.896 184.604 105.271 184.604C106.894 184.604 108.132 185.252 108.982 186.549V180.928ZM105.486 193.289C106.481 193.289 107.312 192.952 107.98 192.277C108.648 191.603 108.981 190.768 108.981 189.772C108.981 188.776 108.648 187.942 107.98 187.267C107.312 186.592 106.481 186.255 105.486 186.255C104.492 186.255 103.679 186.592 103.012 187.267C102.344 187.942 102.01 188.777 102.01 189.772C102.01 190.767 102.345 191.603 103.012 192.277C103.679 192.952 104.504 193.289 105.486 193.289Z" fill="white"/>
<path d="M129.447 194.115L127.915 195L126.521 193.505C125.499 194.463 124.19 194.941 122.591 194.941C121.217 194.941 120.103 194.584 119.253 193.87C118.402 193.156 117.975 192.19 117.975 190.972C117.975 190.134 118.189 189.364 118.614 188.663C119.039 187.962 119.664 187.408 120.489 187.002C119.9 186.255 119.606 185.423 119.606 184.507C119.606 183.367 120.002 182.443 120.795 181.735C121.587 181.028 122.539 180.674 123.652 180.674C124.568 180.674 125.4 180.923 126.146 181.421C126.892 181.919 127.429 182.607 127.756 183.484L126.224 184.368C126.028 183.767 125.704 183.295 125.253 182.954C124.801 182.613 124.281 182.443 123.691 182.443C123.063 182.443 122.53 182.632 122.091 183.012C121.652 183.391 121.433 183.883 121.433 184.485C121.433 184.918 121.534 185.307 121.737 185.654C121.941 186.001 122.245 186.391 122.651 186.823L126.391 190.836C126.723 190.153 126.963 189.321 127.11 188.337L128.681 189.242C128.501 190.332 128.153 191.309 127.637 192.173L129.447 194.114V194.115ZM122.632 193.211C123.724 193.211 124.632 192.892 125.356 192.254L121.631 188.257C121.002 188.519 120.54 188.886 120.245 189.358C119.95 189.83 119.802 190.328 119.802 190.853C119.802 191.586 120.051 192.163 120.549 192.582C121.046 193.001 121.74 193.211 122.631 193.211H122.632Z" fill="white"/>
<path d="M149.538 187.865V188.691C149.538 190.485 148.923 191.976 147.692 193.162C146.46 194.347 144.831 194.94 142.802 194.94C140.773 194.94 138.975 194.25 137.606 192.867C136.238 191.485 135.554 189.798 135.554 187.807C135.554 185.816 136.237 184.129 137.606 182.747C138.975 181.364 140.693 180.674 142.762 180.674C144.032 180.674 145.198 180.978 146.258 181.588C147.319 182.198 148.137 183 148.713 183.996L147.142 184.919C146.749 184.172 146.156 183.572 145.364 183.121C144.572 182.668 143.697 182.443 142.742 182.443C141.171 182.443 139.881 182.957 138.874 183.986C137.866 185.014 137.362 186.288 137.362 187.808C137.362 189.329 137.869 190.599 138.884 191.621C139.898 192.643 141.211 193.154 142.822 193.154C144.197 193.154 145.309 192.817 146.161 192.142C147.012 191.467 147.529 190.593 147.712 189.519H142.665V187.868H149.539L149.538 187.865Z" fill="white"/>
<path d="M153.289 186.51C153.852 185.292 154.873 184.683 156.353 184.683V186.471C155.515 186.432 154.795 186.654 154.193 187.139C153.59 187.624 153.289 188.404 153.289 189.477V194.685H151.581V184.858H153.289V186.509V186.51Z" fill="white"/>
<path d="M158.691 190.559C158.86 191.437 159.263 192.117 159.898 192.602C160.534 193.088 161.316 193.33 162.245 193.33C163.541 193.33 164.484 192.852 165.073 191.895L166.527 192.72C165.571 194.202 164.131 194.942 162.206 194.942C160.648 194.942 159.381 194.453 158.406 193.477C157.43 192.501 156.942 191.266 156.942 189.773C156.942 188.279 157.42 187.06 158.376 186.078C159.332 185.095 160.569 184.604 162.088 184.604C163.528 184.604 164.703 185.112 165.613 186.127C166.523 187.142 166.978 188.364 166.978 189.793C166.978 190.042 166.959 190.297 166.92 190.559H158.691ZM162.088 186.216C161.171 186.216 160.412 186.475 159.81 186.992C159.207 187.51 158.834 188.2 158.691 189.065H165.251C165.106 188.135 164.74 187.428 164.151 186.943C163.562 186.457 162.874 186.215 162.088 186.215V186.216Z" fill="white"/>
<path d="M170.12 190.559C170.29 191.437 170.693 192.117 171.328 192.602C171.963 193.088 172.746 193.33 173.675 193.33C174.971 193.33 175.914 192.852 176.503 191.895L177.956 192.72C177 194.202 175.56 194.942 173.636 194.942C172.078 194.942 170.811 194.453 169.835 193.477C168.86 192.501 168.372 191.266 168.372 189.773C168.372 188.279 168.85 187.06 169.806 186.078C170.761 185.095 171.999 184.604 173.518 184.604C174.958 184.604 176.133 185.112 177.043 186.127C177.953 187.142 178.408 188.364 178.408 189.793C178.408 190.042 178.389 190.297 178.349 190.559H170.12ZM173.518 186.216C172.601 186.216 171.842 186.475 171.239 186.992C170.637 187.51 170.264 188.2 170.12 189.065H176.68C176.536 188.135 176.17 187.428 175.581 186.943C174.991 186.457 174.303 186.215 173.518 186.215V186.216Z" fill="white"/>
<path d="M185.263 184.604C186.415 184.604 187.338 184.968 188.032 185.695C188.725 186.421 189.073 187.407 189.073 188.653V194.686H187.365V188.751C187.365 187.952 187.15 187.332 186.716 186.893C186.284 186.454 185.688 186.235 184.93 186.235C184.079 186.235 183.391 186.5 182.867 187.031C182.343 187.561 182.081 188.378 182.081 189.478V194.686H180.373V184.859H182.081V186.274C182.775 185.161 183.835 184.604 185.263 184.604Z" fill="white"/>
<path d="M196.34 184.604C197.492 184.604 198.416 184.968 199.109 185.694C199.803 186.421 200.151 187.407 200.151 188.652V194.685H198.443V188.75C198.443 187.952 198.227 187.332 197.794 186.893C197.362 186.454 196.766 186.235 196.007 186.235C195.156 186.235 194.468 186.5 193.944 187.031C193.42 187.561 193.159 188.377 193.159 189.478V194.685H191.45V180.928H193.159V186.274C193.852 185.161 194.913 184.604 196.34 184.604Z" fill="white"/>
<path d="M210.815 193.447C209.806 194.443 208.582 194.941 207.142 194.941C205.702 194.941 204.481 194.443 203.479 193.447C202.478 192.451 201.976 191.227 201.976 189.773C201.976 188.318 202.477 187.093 203.479 186.098C204.48 185.102 205.701 184.604 207.142 184.604C208.583 184.604 209.807 185.102 210.815 186.098C211.822 187.094 212.326 188.318 212.326 189.773C212.326 191.227 211.822 192.452 210.815 193.447ZM207.142 193.271C208.124 193.271 208.949 192.937 209.617 192.268C210.285 191.6 210.618 190.767 210.618 189.773C210.618 188.778 210.284 187.944 209.617 187.277C208.949 186.609 208.124 186.274 207.142 186.274C206.16 186.274 205.356 186.608 204.688 187.277C204.02 187.945 203.687 188.778 203.687 189.773C203.687 190.767 204.021 191.6 204.688 192.268C205.356 192.936 206.174 193.271 207.142 193.271Z" fill="white"/>
<path d="M221.127 184.86H222.836V194.686H221.127V193.271C220.433 194.385 219.373 194.942 217.946 194.942C216.793 194.942 215.87 194.578 215.177 193.852C214.483 193.125 214.136 192.139 214.136 190.894V184.861H215.845V190.796C215.845 191.595 216.06 192.214 216.492 192.653C216.924 193.092 217.52 193.311 218.279 193.311C219.13 193.311 219.818 193.046 220.341 192.515C220.865 191.985 221.126 191.169 221.126 190.068V184.861L221.127 184.86Z" fill="white"/>
<path d="M226.881 187.482C226.881 187.854 227.074 188.152 227.459 188.376C227.844 188.601 228.304 188.791 228.839 188.948C229.372 189.105 229.908 189.262 230.448 189.421C230.988 189.579 231.445 189.877 231.818 190.312C232.192 190.748 232.38 191.308 232.38 191.992C232.38 192.884 232.036 193.597 231.348 194.134C230.661 194.672 229.78 194.94 228.706 194.94C227.75 194.94 226.932 194.73 226.252 194.311C225.571 193.892 225.087 193.335 224.798 192.641L226.271 191.796C226.428 192.267 226.723 192.641 227.155 192.915C227.587 193.189 228.105 193.329 228.706 193.329C229.269 193.329 229.734 193.221 230.1 193.005C230.466 192.79 230.65 192.453 230.65 191.995C230.65 191.615 230.459 191.312 230.08 191.083C229.7 190.854 229.243 190.659 228.71 190.499C228.177 190.338 227.639 190.178 227.1 190.015C226.56 189.853 226.1 189.562 225.721 189.142C225.342 188.723 225.151 188.187 225.151 187.531C225.151 186.679 225.482 185.979 226.143 185.428C226.804 184.878 227.632 184.603 228.628 184.603C229.426 184.603 230.136 184.783 230.759 185.143C231.381 185.504 231.849 186.005 232.163 186.647L230.729 187.452C230.375 186.614 229.675 186.194 228.628 186.194C228.143 186.194 227.731 186.307 227.39 186.53C227.049 186.755 226.879 187.071 226.879 187.481L226.881 187.482Z" fill="white"/>
<path d="M235.325 190.559C235.495 191.437 235.898 192.117 236.533 192.602C237.168 193.088 237.951 193.33 238.88 193.33C240.176 193.33 241.119 192.852 241.708 191.895L243.162 192.72C242.205 194.202 240.765 194.942 238.841 194.942C237.283 194.942 236.016 194.453 235.04 193.477C234.065 192.501 233.577 191.266 233.577 189.773C233.577 188.279 234.055 187.06 235.011 186.078C235.966 185.095 237.204 184.604 238.723 184.604C240.163 184.604 241.338 185.112 242.248 186.127C243.158 187.142 243.613 188.364 243.613 189.793C243.613 190.042 243.594 190.297 243.554 190.559H235.325ZM238.723 186.216C237.806 186.216 237.047 186.475 236.444 186.992C235.842 187.51 235.469 188.2 235.325 189.065H241.885C241.741 188.135 241.375 187.428 240.786 186.943C240.196 186.457 239.508 186.215 238.723 186.215V186.216Z" fill="white"/>
</svg>
