<svg width="308" height="195" viewBox="0 0 308 195" fill="none" xmlns="http://www.w3.org/2000/svg">
<path d="M308 8.2867C308 8.2867 281.156 -4.73329 274.288 24.3144C274.288 24.3144 297.511 36.6057 308 8.2867Z" fill="#2A9650"/>
<path d="M268.555 0C268.555 0 255.707 12.4312 271.174 22.0157C271.174 22.0157 282.886 11.4621 268.555 0Z" fill="#2A9650"/>
<path d="M199.163 54.4937V56.4243H183.098V54.1321C183.292 40.8332 166.379 33.606 156.525 43.3359C153.527 46.3018 152.012 49.8696 151.992 54.0715V56.4232H135.886C135.896 55.2468 135.886 54.3328 135.886 54.131C136.029 40.6314 118.993 33.735 109.375 43.3348C106.346 46.3095 104.832 49.9093 104.832 54.131V56.4232H88.7161V54.131C88.7161 45.5962 91.8058 38.2786 97.9966 32.1671C108.935 20.296 131.753 20.0347 142.323 31.2829C143.224 32.2476 144.727 32.2675 145.638 31.3027C150.847 25.8043 158.142 23.0502 167.515 23.0502C180.315 22.7282 192.348 31.1726 196.995 42.6413C196.995 42.6413 199.133 48.0703 199.154 54.131V54.3625C199.154 54.4121 199.164 54.4529 199.164 54.4926" fill="#2A9650"/>
<path d="M247.257 23.0496C227.662 23.0496 211.535 37.676 209.571 56.4226H225.186C227.028 46.0884 236.216 38.2383 247.258 38.2383C258.299 38.2383 267.488 46.0895 269.329 56.4226H284.944C282.979 37.6749 266.864 23.0496 247.259 23.0496" fill="#2A9650"/>
<path d="M37.6855 23.0495C18.0908 23.0495 1.9652 37.6759 0 56.4225H15.6149C17.4567 46.0883 26.6452 38.2382 37.6866 38.2382C48.7281 38.2382 57.9166 46.0894 59.7684 56.4225H75.3632C73.398 37.6748 57.2926 23.0495 37.6866 23.0495" fill="#2A9650"/>
<path d="M88.7156 64.1233H104.831V89.6759C104.831 91.8579 104.043 93.6969 102.467 95.1644C99.408 98.2902 94.1488 98.2902 91.0893 95.1644C89.5135 93.6969 88.7156 91.8579 88.7156 89.6759V64.1233Z" fill="#EE7924"/>
<path d="M135.886 64.1233H151.992V89.6759C151.992 91.8579 151.204 93.6969 149.618 95.1644C146.721 98.3111 141.228 98.2505 138.25 95.1644C136.674 93.6969 135.886 91.8579 135.886 89.6759V64.1233Z" fill="#EE7924"/>
<path d="M183.099 64.1233H199.164C199.164 74.0848 199.164 87.645 199.143 89.6759C199.133 90.2085 199.123 91.4047 198.53 92.762C198.151 93.6363 197.578 94.4412 196.842 95.1644C195.266 96.7124 193.383 97.4864 191.193 97.4864H191.06C188.829 97.4864 186.957 96.7124 185.463 95.1644C183.888 93.6969 183.1 91.8678 183.1 89.6759V64.1233H183.099Z" fill="#EE7924"/>
<path d="M269.327 64.1233C267.475 74.4464 258.297 82.2977 247.255 82.2977C236.214 82.2977 227.037 74.4464 225.184 64.1233H209.579C211.544 82.86 227.66 97.4864 247.254 97.4864C266.849 97.4864 282.976 82.8611 284.931 64.1233H269.326H269.327Z" fill="#EE7924"/>
<path d="M59.7672 64.1233C59.7055 64.475 59.6348 64.8267 59.5517 65.1685C57.2801 74.9701 48.3576 82.2977 37.6854 82.2977C27.0132 82.2977 17.4656 74.4464 15.6137 64.1233H0.0100098C1.97521 82.86 18.0907 97.4864 37.6865 97.4864C45.8616 97.4864 53.4238 94.9428 59.6146 90.6208C59.8402 92.4003 60.6684 93.9979 61.8963 95.2052C63.3486 96.6319 65.3441 97.5073 67.555 97.5073C71.986 97.5073 75.5673 93.9891 75.5673 89.6362V64.1244H59.7683L59.7672 64.1233Z" fill="#EE7924"/>
<path d="M258.019 114.9H29.8598C14.1796 114.9 1.46826 127.388 1.46826 142.792C1.46826 158.195 14.1796 170.683 29.8598 170.683H258.019C273.699 170.683 286.41 158.195 286.41 142.792C286.41 127.388 273.699 114.9 258.019 114.9Z" fill="#2A9650"/>
<path d="M102.126 124.839V128.798H92.6453V156.333H88.4321V128.798H78.9978V124.839H102.127H102.126Z" fill="white"/>
<path d="M109.087 137.617C110.399 134.827 112.78 133.433 116.231 133.433V137.526C114.277 137.436 112.597 137.946 111.193 139.057C109.788 140.167 109.087 141.952 109.087 144.411V156.334H105.102V133.837H109.087V137.617Z" fill="white"/>
<path d="M140.139 133.837H144.123V156.333H140.139V152.464C138.153 155.434 135.268 156.919 131.482 156.919C128.276 156.919 125.543 155.771 123.284 153.477C121.023 151.182 119.894 148.385 119.894 145.085C119.894 141.785 121.023 138.989 123.284 136.694C125.543 134.399 128.276 133.251 131.482 133.251C135.268 133.251 138.153 134.737 140.139 137.706V133.836V133.837ZM131.986 153.139C134.306 153.139 136.245 152.367 137.803 150.822C139.36 149.277 140.139 147.365 140.139 145.085C140.139 142.805 139.36 140.893 137.803 139.349C136.247 137.804 134.307 137.031 131.986 137.031C129.665 137.031 127.773 137.804 126.215 139.349C124.659 140.893 123.88 142.806 123.88 145.085C123.88 147.364 124.659 149.277 126.215 150.822C127.773 152.366 129.696 153.139 131.986 153.139Z" fill="white"/>
<path d="M171.421 124.839H175.405V156.335H171.421V152.466C169.435 155.435 166.55 156.92 162.764 156.92C159.558 156.92 156.825 155.772 154.565 153.478C152.305 151.183 151.176 148.386 151.176 145.086C151.176 141.786 152.305 138.99 154.565 136.695C156.825 134.4 159.558 133.253 162.764 133.253C166.55 133.253 169.435 134.738 171.421 137.707V124.839ZM163.268 153.139C165.588 153.139 167.527 152.368 169.085 150.822C170.642 149.277 171.421 147.365 171.421 145.085C171.421 142.805 170.642 140.893 169.085 139.349C167.527 137.804 165.589 137.031 163.268 137.031C160.947 137.031 159.055 137.804 157.497 139.349C155.939 140.893 155.161 142.806 155.161 145.085C155.161 147.364 155.94 149.277 157.497 150.822C159.054 152.366 160.977 153.139 163.268 153.139Z" fill="white"/>
<path d="M186.533 146.885C186.93 148.895 187.869 150.455 189.35 151.564C190.831 152.675 192.656 153.229 194.824 153.229C197.846 153.229 200.045 152.134 201.419 149.945L204.808 151.835C202.579 155.225 199.22 156.918 194.732 156.918C191.098 156.918 188.144 155.802 185.87 153.567C183.595 151.333 182.458 148.505 182.458 145.086C182.458 141.667 183.573 138.876 185.802 136.627C188.031 134.378 190.915 133.252 194.458 133.252C197.816 133.252 200.557 134.415 202.679 136.74C204.802 139.065 205.862 141.862 205.862 145.131C205.862 145.701 205.816 146.287 205.725 146.886H186.535L186.533 146.885ZM194.457 136.941C192.319 136.941 190.548 137.535 189.144 138.719C187.739 139.904 186.869 141.486 186.533 143.465H201.831C201.494 141.336 200.64 139.716 199.266 138.606C197.893 137.497 196.289 136.941 194.457 136.941Z" fill="white"/>
<path d="M74.6606 177.635H76.486V191.141H74.6606V177.635Z" fill="white"/>
<path d="M89.8621 181.242C90.9619 181.242 91.8519 181.593 92.5332 182.294C93.2133 182.995 93.5545 183.944 93.5545 185.14V191.14H91.8463V185.197C91.8463 184.452 91.6499 183.873 91.2571 183.461C90.8643 183.049 90.3402 182.843 89.6858 182.843C88.9518 182.843 88.3671 183.085 87.9283 183.567C87.4895 184.049 87.2706 184.785 87.2706 185.776V191.14H85.5624V185.197C85.5624 184.452 85.3761 183.873 85.0024 183.461C84.6298 183.049 84.1213 182.843 83.4805 182.843C82.76 182.843 82.1618 183.088 81.6836 183.576C81.2055 184.065 80.9665 184.798 80.9665 185.776V191.14H79.2583V181.493H80.9665V182.785C81.6343 181.756 82.6096 181.241 83.8924 181.241C85.1752 181.241 86.1775 181.788 86.779 182.881C87.4591 181.788 88.4872 181.241 89.8621 181.241V181.242Z" fill="white"/>
<path d="M101.351 181.242C102.726 181.242 103.897 181.734 104.866 182.719C105.835 183.702 106.319 184.902 106.319 186.317C106.319 187.733 105.835 188.932 104.866 189.916C103.897 190.9 102.726 191.393 101.351 191.393C99.7269 191.393 98.4901 190.755 97.6393 189.482V195H95.9312V181.494H97.6393V183.153C98.4901 181.88 99.728 181.244 101.351 181.244V181.242ZM101.134 189.771C102.116 189.771 102.941 189.44 103.609 188.777C104.277 188.115 104.61 187.295 104.61 186.317C104.61 185.34 104.276 184.52 103.609 183.858C102.941 183.195 102.116 182.864 101.134 182.864C100.152 182.864 99.3082 183.195 98.6405 183.858C97.9727 184.52 97.6393 185.341 97.6393 186.317C97.6393 187.294 97.9738 188.115 98.6405 188.777C99.3082 189.44 100.14 189.771 101.134 189.771Z" fill="white"/>
<path d="M116.65 189.925C115.642 190.903 114.418 191.392 112.978 191.392C111.538 191.392 110.317 190.903 109.315 189.925C108.313 188.947 107.812 187.746 107.812 186.318C107.812 184.89 108.312 183.687 109.315 182.71C110.316 181.733 111.537 181.244 112.978 181.244C114.419 181.244 115.642 181.732 116.65 182.71C117.658 183.688 118.162 184.89 118.162 186.318C118.162 187.746 117.658 188.949 116.65 189.925ZM112.978 189.751C113.96 189.751 114.785 189.424 115.453 188.768C116.12 188.112 116.454 187.295 116.454 186.318C116.454 185.341 116.12 184.523 115.453 183.868C114.785 183.212 113.96 182.885 112.978 182.885C111.996 182.885 111.191 183.212 110.523 183.868C109.856 184.524 109.522 185.341 109.522 186.318C109.522 187.295 109.857 188.112 110.523 188.768C111.191 189.424 112.009 189.751 112.978 189.751Z" fill="white"/>
<path d="M121.894 183.115C122.457 181.918 123.478 181.321 124.958 181.321V183.076C124.12 183.037 123.4 183.256 122.798 183.732C122.195 184.208 121.894 184.974 121.894 186.028V191.14H120.186V181.493H121.894V183.114V183.115Z" fill="white"/>
<path d="M132.205 183.115H129.593V188.343C129.593 188.819 129.688 189.157 129.878 189.356C130.068 189.556 130.36 189.658 130.753 189.665C131.145 189.672 131.629 189.662 132.206 189.636V191.141C130.713 191.334 129.62 191.215 128.927 190.784C128.233 190.353 127.886 189.539 127.886 188.343V183.115H125.942V181.494H127.886V179.294L129.594 178.793V181.494H132.206V183.115H132.205Z" fill="white"/>
<path d="M150.45 190.581L148.918 191.45L147.524 189.982C146.503 190.923 145.193 191.392 143.595 191.392C142.22 191.392 141.107 191.042 140.256 190.34C139.405 189.639 138.979 188.691 138.979 187.495C138.979 186.672 139.192 185.916 139.618 185.228C140.043 184.54 140.668 183.996 141.493 183.597C140.904 182.864 140.61 182.047 140.61 181.147C140.61 180.028 141.006 179.121 141.798 178.427C142.591 177.733 143.542 177.386 144.656 177.386C145.572 177.386 146.403 177.63 147.15 178.119C147.896 178.608 148.432 179.283 148.76 180.144L147.228 181.013C147.032 180.422 146.707 179.959 146.256 179.624C145.805 179.29 145.284 179.122 144.695 179.122C144.067 179.122 143.533 179.308 143.095 179.682C142.656 180.055 142.437 180.538 142.437 181.129C142.437 181.553 142.538 181.936 142.741 182.276C142.944 182.617 143.248 183 143.655 183.424L147.394 187.364C147.726 186.693 147.967 185.876 148.114 184.91L149.685 185.799C149.504 186.869 149.156 187.828 148.641 188.677L150.45 190.582V190.581ZM143.636 189.693C144.728 189.693 145.636 189.38 146.359 188.754L142.634 184.83C142.006 185.087 141.544 185.447 141.248 185.91C140.953 186.373 140.806 186.863 140.806 187.378C140.806 188.098 141.054 188.665 141.552 189.076C142.05 189.488 142.743 189.693 143.634 189.693H143.636Z" fill="white"/>
<path d="M159.111 189.443H165.494V191.141H157.284V177.635H165.395V179.333H159.11V183.48H164.903V185.159H159.11V189.442L159.111 189.443Z" fill="white"/>
<path d="M176.041 191.141H174.037L171.278 187.497L168.518 191.141H166.514L170.275 186.175L166.73 181.495H168.752L171.282 184.845L173.819 181.495H175.822L172.282 186.168L176.038 191.141H176.041Z" fill="white"/>
<path d="M183.053 181.242C184.428 181.242 185.599 181.734 186.568 182.719C187.536 183.702 188.021 184.902 188.021 186.317C188.021 187.733 187.536 188.932 186.568 189.916C185.599 190.9 184.428 191.393 183.053 191.393C181.429 191.393 180.192 190.755 179.341 189.482V195H177.633V181.494H179.341V183.153C180.192 181.88 181.43 181.244 183.053 181.244V181.242ZM182.836 189.771C183.818 189.771 184.643 189.44 185.311 188.777C185.979 188.115 186.312 187.295 186.312 186.317C186.312 185.34 185.978 184.52 185.311 183.858C184.643 183.195 183.818 182.864 182.836 182.864C181.854 182.864 181.01 183.195 180.342 183.858C179.675 184.52 179.341 185.341 179.341 186.317C179.341 187.294 179.675 188.115 180.342 188.777C181.01 189.44 181.842 189.771 182.836 189.771Z" fill="white"/>
<path d="M198.352 189.925C197.343 190.903 196.12 191.392 194.68 191.392C193.24 191.392 192.019 190.903 191.017 189.925C190.016 188.947 189.514 187.746 189.514 186.318C189.514 184.89 190.014 183.687 191.017 182.71C192.018 181.733 193.239 181.244 194.68 181.244C196.121 181.244 197.344 181.732 198.352 182.71C199.36 183.688 199.864 184.89 199.864 186.318C199.864 187.746 199.36 188.949 198.352 189.925ZM194.68 189.751C195.662 189.751 196.487 189.424 197.155 188.768C197.823 188.112 198.156 187.295 198.156 186.318C198.156 185.341 197.821 184.523 197.155 183.868C196.488 183.213 195.662 182.885 194.68 182.885C193.698 182.885 192.893 183.212 192.225 183.868C191.558 184.524 191.224 185.341 191.224 186.318C191.224 187.295 191.559 188.112 192.225 188.768C192.892 189.424 193.711 189.751 194.68 189.751Z" fill="white"/>
<path d="M203.596 183.115C204.158 181.918 205.18 181.321 206.66 181.321V183.076C205.822 183.037 205.102 183.256 204.5 183.732C203.897 184.208 203.596 184.974 203.596 186.028V191.14H201.888V181.493H203.596V183.114V183.115Z" fill="white"/>
<path d="M213.907 183.115H211.295V188.343C211.295 188.819 211.389 189.157 211.58 189.356C211.77 189.556 212.062 189.658 212.455 189.665C212.847 189.672 213.331 189.662 213.908 189.636V191.141C212.415 191.334 211.322 191.215 210.629 190.784C209.935 190.353 209.588 189.539 209.588 188.343V183.115H207.644V181.494H209.588V179.294L211.296 178.793V181.494H213.908V183.115H213.907Z" fill="white"/>
</svg>
