<svg width="391" height="377" viewBox="0 0 391 377" fill="none" xmlns="http://www.w3.org/2000/svg">
<path d="M0.666667 14C0.666667 16.9455 3.05448 19.3333 6 19.3333C8.94552 19.3333 11.3333 16.9455 11.3333 14C11.3333 11.0545 8.94552 8.66667 6 8.66667C3.05448 8.66667 0.666667 11.0545 0.666667 14ZM5 14V352H7V14H5ZM30 377H366V375H30V377ZM391 352V38H389V352H391ZM366 13H180.5V15H366V13ZM391 38C391 24.1929 379.807 13 366 13V15C378.703 15 389 25.2975 389 38H391ZM366 377C379.807 377 391 365.807 391 352H389C389 364.703 378.703 375 366 375V377ZM5 352C5 365.807 16.1929 377 30 377V375C17.2975 375 7 364.703 7 352H5Z" fill="white"/>
<g clip-path="url(#clip0_40_74)">
<path d="M156.04 0H35.86C27.65 0 21 6.65 21 14.86C21 23.07 27.65 29.72 35.86 29.72H156.04C164.25 29.72 170.9 23.07 170.9 14.86C170.9 6.65 164.25 0 156.04 0Z" fill="#29974F"/>
<path d="M74.75 23.61C73.5 23.61 72.34 23.38 71.28 22.93C70.22 22.48 69.3001 21.84 68.5201 21.02C67.7401 20.2 67.1401 19.23 66.7001 18.12C66.2601 17.01 66.05 15.8 66.05 14.48C66.05 13.16 66.26 11.93 66.69 10.82C67.12 9.71002 67.72 8.74002 68.5 7.92002C69.28 7.10002 70.2 6.46002 71.26 6.01002C72.32 5.56002 73.48 5.33002 74.73 5.33002C75.98 5.33002 77.0501 5.54002 78.0201 5.97002C78.9901 6.40002 79.8201 6.95002 80.4901 7.64002C81.1601 8.33002 81.64 9.05002 81.93 9.83002L79.84 10.85C79.43 9.82002 78.79 9.00002 77.91 8.40002C77.03 7.80002 75.9801 7.50002 74.7201 7.50002C73.4601 7.50002 72.39 7.79002 71.43 8.38002C70.47 8.97002 69.72 9.78002 69.18 10.83C68.64 11.88 68.37 13.1 68.37 14.49C68.37 15.88 68.64 17.08 69.19 18.13C69.74 19.18 70.4901 19.99 71.4501 20.58C72.4101 21.17 73.5101 21.46 74.7401 21.46C75.8201 21.46 76.79 21.23 77.66 20.77C78.53 20.31 79.22 19.68 79.73 18.87C80.24 18.06 80.4901 17.13 80.4901 16.06V14.97L81.5601 15.97H74.71V13.95H82.84V15.52C82.84 16.76 82.6301 17.87 82.2001 18.87C81.7701 19.87 81.19 20.72 80.44 21.43C79.69 22.14 78.83 22.68 77.85 23.06C76.87 23.44 75.83 23.63 74.73 23.63L74.75 23.61Z" fill="white"/>
<path d="M85.73 23.33V10.51H87.89V12.86L87.65 12.53C87.95 11.8 88.41 11.26 89.03 10.9C89.65 10.54 90.4 10.36 91.29 10.36H92.07V12.45H90.95C90.05 12.45 89.32 12.73 88.76 13.29C88.2 13.85 87.93 14.65 87.93 15.68V23.31H85.72L85.73 23.33Z" fill="white"/>
<path d="M100.14 23.61C98.9 23.61 97.79 23.32 96.79 22.74C95.79 22.16 95 21.36 94.41 20.35C93.82 19.34 93.53 18.19 93.53 16.9C93.53 15.61 93.82 14.47 94.4 13.48C94.98 12.48 95.77 11.69 96.77 11.1C97.77 10.51 98.89 10.22 100.15 10.22C101.41 10.22 102.5 10.51 103.5 11.09C104.5 11.67 105.29 12.46 105.87 13.46C106.45 14.46 106.74 15.61 106.74 16.91C106.74 18.21 106.44 19.36 105.84 20.37C105.24 21.38 104.44 22.17 103.45 22.75C102.46 23.33 101.36 23.62 100.16 23.62L100.14 23.61ZM100.14 21.47C100.93 21.47 101.65 21.27 102.29 20.88C102.93 20.48 103.44 19.94 103.81 19.24C104.18 18.54 104.37 17.77 104.37 16.91C104.37 16.05 104.18 15.27 103.81 14.59C103.44 13.92 102.93 13.38 102.29 12.97C101.65 12.57 100.93 12.36 100.14 12.36C99.35 12.36 98.61 12.56 97.96 12.97C97.32 13.37 96.81 13.91 96.43 14.59C96.05 15.26 95.86 16.04 95.86 16.91C95.86 17.78 96.05 18.54 96.43 19.24C96.81 19.94 97.32 20.48 97.96 20.88C98.6 21.28 99.33 21.47 100.14 21.47Z" fill="white"/>
<path d="M112.34 23.33L107.94 10.51H110.39L113.89 21.24L113.03 21.22L116.45 10.52H118.54L121.96 21.22L121.1 21.24L124.62 10.51H127.05L122.65 23.33H120.53L117.15 12.63H117.82L114.44 23.33H112.32H112.34Z" fill="white"/>
<path d="M65.72 47.61C65.23 47.61 64.8 47.52 64.42 47.33C64.05 47.14 63.76 46.88 63.55 46.55C63.34 46.22 63.24 45.84 63.24 45.42C63.24 44.96 63.34 44.56 63.54 44.22C63.74 43.89 64.05 43.62 64.47 43.43C64.89 43.24 65.42 43.15 66.06 43.15H67.97V42.94C67.97 42.41 67.82 41.99 67.52 41.69C67.22 41.39 66.8 41.24 66.27 41.24C65.93 41.24 65.63 41.29 65.37 41.4C65.11 41.51 64.91 41.65 64.76 41.84C64.61 42.03 64.53 42.22 64.5 42.44H63.44C63.47 42.05 63.6 41.69 63.82 41.36C64.05 41.02 64.37 40.76 64.79 40.55C65.21 40.35 65.7 40.25 66.27 40.25C66.84 40.25 67.33 40.36 67.74 40.57C68.16 40.78 68.47 41.09 68.7 41.5C68.92 41.91 69.03 42.39 69.03 42.95V47.48H68.11L67.97 46.63H67.9C67.74 46.89 67.46 47.11 67.07 47.32C66.68 47.53 66.22 47.62 65.7 47.62L65.72 47.61ZM65.72 46.62C66.18 46.62 66.59 46.53 66.93 46.35C67.27 46.17 67.54 45.92 67.72 45.58C67.9 45.25 67.99 44.86 67.99 44.42V44.14H66.08C65.47 44.14 65.03 44.26 64.74 44.49C64.45 44.72 64.31 45.03 64.31 45.41C64.31 45.79 64.43 46.06 64.68 46.28C64.93 46.5 65.28 46.61 65.73 46.61L65.72 46.62Z" fill="white"/>
<path d="M74.0901 50.45C73.4601 50.45 72.9001 50.34 72.4301 50.11C71.9601 49.88 71.5901 49.59 71.3301 49.22C71.0701 48.85 70.9301 48.46 70.9001 48.04H71.9601C71.9901 48.29 72.0901 48.52 72.2601 48.73C72.4301 48.95 72.6701 49.12 72.9801 49.25C73.2901 49.38 73.6601 49.45 74.0901 49.45C74.7301 49.45 75.2501 49.27 75.6301 48.91C76.0101 48.55 76.2101 48.07 76.2101 47.46V46.18H76.1401C75.8601 46.5 75.5201 46.75 75.1301 46.92C74.7401 47.09 74.3201 47.17 73.8701 47.17C73.2601 47.17 72.7001 47.02 72.2001 46.73C71.7001 46.44 71.3101 46.03 71.0301 45.5C70.7501 44.97 70.6001 44.37 70.6001 43.7C70.6001 43.03 70.7401 42.43 71.0301 41.9C71.3201 41.37 71.7001 40.96 72.2001 40.67C72.7001 40.38 73.2501 40.23 73.8701 40.23C74.3201 40.23 74.7501 40.33 75.1501 40.52C75.5501 40.71 75.8801 40.97 76.1401 41.29H76.2101L76.3501 40.37H77.2701V47.45C77.2701 48.04 77.1401 48.55 76.8901 49C76.6301 49.45 76.2701 49.8 75.7801 50.05C75.3001 50.3 74.7301 50.43 74.0801 50.43L74.0901 50.45ZM73.9501 46.2C74.3801 46.2 74.7601 46.1 75.1101 45.89C75.4601 45.68 75.7301 45.39 75.9201 45.01C76.1201 44.63 76.2201 44.2 76.2201 43.72C76.2201 43.24 76.1201 42.81 75.9201 42.43C75.7201 42.05 75.4501 41.76 75.1101 41.55C74.7701 41.34 74.3801 41.24 73.9501 41.24C73.5201 41.24 73.1401 41.34 72.8001 41.55C72.4601 41.76 72.1801 42.05 71.9801 42.43C71.7801 42.81 71.6801 43.24 71.6801 43.72C71.6801 44.2 71.7801 44.63 71.9801 45.01C72.1801 45.39 72.4501 45.68 72.8001 45.89C73.1501 46.1 73.5301 46.2 73.9501 46.2Z" fill="white"/>
<path d="M79.26 47.47V40.39H80.18L80.32 41.1H80.39C80.55 40.85 80.72 40.68 80.91 40.56C81.1 40.45 81.37 40.39 81.73 40.39H82.93V41.38H81.87C81.38 41.38 81 41.51 80.72 41.78C80.45 42.05 80.31 42.43 80.31 42.94V47.47H79.25H79.26Z" fill="white"/>
<path d="M84.02 38.9V37.7H85.22V38.9H84.02ZM84.08 47.47V40.39H85.14V47.47H84.08Z" fill="white"/>
<path d="M90.0999 47.61C89.4699 47.61 88.8899 47.45 88.3699 47.14C87.8499 46.83 87.4399 46.39 87.1399 45.84C86.8399 45.28 86.6899 44.65 86.6899 43.93C86.6899 43.21 86.8399 42.57 87.1399 42.02C87.4399 41.46 87.8499 41.03 88.3699 40.72C88.8899 40.41 89.4699 40.25 90.0999 40.25C90.6199 40.25 91.0899 40.35 91.5199 40.54C91.9499 40.73 92.3099 41.01 92.5999 41.38C92.8899 41.74 93.0999 42.17 93.2099 42.66H92.1499C92.0099 42.21 91.7599 41.86 91.3899 41.61C91.0299 41.36 90.5899 41.24 90.0899 41.24C89.6699 41.24 89.2699 41.35 88.9099 41.57C88.5499 41.79 88.2699 42.11 88.0599 42.52C87.8499 42.93 87.7499 43.4 87.7499 43.93C87.7499 44.46 87.8499 44.93 88.0599 45.34C88.2699 45.75 88.5499 46.07 88.9099 46.29C89.2699 46.51 89.6599 46.62 90.0899 46.62C90.5999 46.62 91.0299 46.49 91.3899 46.24C91.7499 45.98 91.9999 45.62 92.1399 45.13H93.1999C93.0899 45.64 92.8799 46.08 92.5899 46.45C92.2999 46.82 91.9399 47.11 91.5099 47.31C91.0799 47.51 90.6099 47.61 90.0899 47.61H90.0999Z" fill="white"/>
<path d="M97.54 47.61C97 47.61 96.52 47.49 96.09 47.23C95.66 46.98 95.32 46.63 95.08 46.17C94.83 45.72 94.71 45.2 94.71 44.63V40.38H95.77V44.63C95.77 45 95.85 45.33 96.02 45.64C96.19 45.94 96.42 46.18 96.71 46.36C97 46.54 97.32 46.62 97.67 46.62C98.04 46.62 98.38 46.53 98.7 46.34C99.02 46.16 99.27 45.91 99.45 45.61C99.63 45.31 99.73 44.98 99.73 44.63V40.38H100.79V47.46H99.87L99.73 46.68H99.66C99.46 46.93 99.18 47.14 98.8 47.32C98.43 47.5 98 47.6 97.53 47.6L97.54 47.61Z" fill="white"/>
<path d="M102.85 47.47V37.55H103.91V47.47H102.85Z" fill="white"/>
<path d="M107.74 47.47C107.35 47.47 107.04 47.36 106.81 47.14C106.58 46.92 106.46 46.63 106.46 46.27V41.38H105.33V40.39H106.46V38.41H107.52V40.39H109.15V41.38H107.52V46.06C107.52 46.2 107.56 46.31 107.63 46.38C107.7 46.45 107.81 46.49 107.95 46.49H109.16V47.48H107.74V47.47Z" fill="white"/>
<path d="M113.49 47.61C112.95 47.61 112.47 47.49 112.04 47.23C111.61 46.98 111.27 46.63 111.03 46.17C110.78 45.72 110.66 45.2 110.66 44.63V40.38H111.72V44.63C111.72 45 111.8 45.33 111.97 45.64C112.14 45.94 112.37 46.18 112.66 46.36C112.95 46.54 113.27 46.62 113.62 46.62C113.99 46.62 114.33 46.53 114.65 46.34C114.97 46.16 115.22 45.91 115.4 45.61C115.58 45.31 115.68 44.98 115.68 44.63V40.38H116.74V47.46H115.82L115.68 46.68H115.61C115.41 46.93 115.13 47.14 114.75 47.32C114.38 47.5 113.95 47.6 113.48 47.6L113.49 47.61Z" fill="white"/>
<path d="M118.74 47.47V40.39H119.66L119.8 41.1H119.87C120.03 40.85 120.2 40.68 120.39 40.56C120.58 40.45 120.85 40.39 121.21 40.39H122.41V41.38H121.35C120.86 41.38 120.48 41.51 120.2 41.78C119.93 42.05 119.79 42.43 119.79 42.94V47.47H118.73H118.74Z" fill="white"/>
<path d="M126.4 47.61C125.77 47.61 125.19 47.45 124.67 47.14C124.15 46.83 123.74 46.39 123.44 45.84C123.14 45.28 122.99 44.65 122.99 43.93C122.99 43.21 123.14 42.57 123.44 42.02C123.74 41.46 124.15 41.03 124.67 40.72C125.19 40.41 125.77 40.25 126.4 40.25C127.03 40.25 127.56 40.4 128.06 40.69C128.56 40.98 128.95 41.39 129.24 41.9C129.53 42.41 129.66 43 129.66 43.65C129.66 43.84 129.66 44 129.64 44.15C129.63 44.29 129.61 44.39 129.59 44.43H124.06C124.11 44.86 124.24 45.25 124.46 45.59C124.68 45.92 124.96 46.18 125.3 46.36C125.64 46.54 126.01 46.63 126.41 46.63C126.83 46.63 127.22 46.53 127.55 46.33C127.88 46.13 128.14 45.85 128.32 45.49H129.45C129.28 45.94 129.05 46.33 128.76 46.64C128.47 46.95 128.13 47.2 127.73 47.36C127.33 47.52 126.89 47.61 126.4 47.61ZM128.6 43.43C128.58 43.01 128.47 42.64 128.27 42.3C128.07 41.97 127.81 41.7 127.48 41.51C127.15 41.32 126.79 41.23 126.4 41.23C125.98 41.23 125.61 41.32 125.27 41.51C124.93 41.7 124.66 41.96 124.45 42.29C124.24 42.62 124.11 43 124.07 43.42H128.6V43.43Z" fill="white"/>
</g>
<defs>
<clipPath id="clip0_40_74">
<rect width="149.9" height="50.45" fill="white" transform="translate(21)"/>
</clipPath>
</defs>
</svg>
