<svg width="72" height="72" viewBox="0 0 72 72" fill="none" xmlns="http://www.w3.org/2000/svg">
<rect x="1.5" y="1.5" width="69" height="69" rx="14.5" stroke="#033641" stroke-width="3"/>
<path d="M42.1364 29.8637L37.0231 34.977M42.1364 29.8637V23.7273L48.2727 17.5909V23.7273H54.4091L48.2727 29.8637H42.1364Z" stroke="#033641" stroke-width="3" stroke-linecap="round" stroke-linejoin="round"/>
<path d="M36.6755 17.5909H36C32.3591 17.5909 28.7999 18.6706 25.7725 20.6934C22.7451 22.7163 20.3856 25.5914 18.9923 28.9552C17.5989 32.319 17.2344 36.0205 17.9447 39.5915C18.655 43.1625 20.4083 46.4427 22.9828 49.0172C25.5574 51.5918 28.8376 53.3451 32.4086 54.0554C35.9796 54.7657 39.6811 54.4012 43.0449 53.0078C46.4087 51.6145 49.2838 49.2549 51.3066 46.2276C53.3295 43.2002 54.4091 39.641 54.4091 36V35.3255" stroke="#033641" stroke-width="3" stroke-linecap="round" stroke-linejoin="round"/>
<path d="M46.0225 38.0452C45.6527 39.8554 44.7995 41.5317 43.5534 42.896C42.3073 44.2602 40.715 45.2614 38.9455 45.7932C37.1761 46.3249 35.2956 46.3675 33.5039 45.9162C31.7122 45.465 30.0762 44.5368 28.7698 43.2304C27.4633 41.9239 26.5351 40.2879 26.0839 38.4962C25.6326 36.7045 25.6752 34.8241 26.207 33.0546C26.7388 31.2851 27.74 29.6928 29.1042 28.4467C30.4684 27.2007 32.1447 26.3474 33.9549 25.9777" stroke="#033641" stroke-width="3" stroke-linecap="round" stroke-linejoin="round"/>
</svg>
