<svg width="72" height="72" viewBox="0 0 72 72" fill="none" xmlns="http://www.w3.org/2000/svg">
<rect x="1.5" y="1.5" width="69" height="69.0021" rx="14.5" stroke="#033641" stroke-width="3"/>
<path d="M59.2577 36.001C59.2577 36.001 48.8597 49.2903 36.001 49.2903C23.1439 49.2903 12.7443 36.001 12.7443 36.001C12.7443 36.001 23.1423 22.7117 36.001 22.7117C48.8597 22.7117 59.2577 36.001 59.2577 36.001ZM36.001 29.3555C34.2385 29.3555 32.5482 30.0557 31.302 31.3019C30.0557 32.5482 29.3556 34.2385 29.3556 36.001C29.3556 37.7635 30.0557 39.4538 31.302 40.7C32.5482 41.9463 34.2385 42.6464 36.001 42.6464C37.7635 42.6464 39.4538 41.9463 40.7001 40.7C41.9463 39.4538 42.6465 37.7635 42.6465 36.001C42.6465 34.2385 41.9463 32.5482 40.7001 31.3019C39.4538 30.0557 37.7635 29.3555 36.001 29.3555Z" stroke="#033641" stroke-width="2.4" stroke-linecap="round" stroke-linejoin="round"/>
</svg>
